<svg xmlns="http://www.w3.org/2000/svg" xmlns:xlink="http://www.w3.org/1999/xlink" version="1.1" x="0px" y="0px" viewBox="0 0 720 720" style="enable-background:new 0 0 720 720;" xml:space="preserve">
<style xmlns="http://www.w3.org/2000/svg" type="text/css">
	.st0{enable-background:new    ;}
	.st1{opacity:0.5;fill:#CCE9FF;}
	.st2{fill:#CCE9FF;}
	.st3{fill:#2A94F4;}
	.st4{fill:#0B4870;}
	.st5{fill:#522cad;}
	.st6{fill:#064A6F;}
	.st7{fill:#FCD2B1;}
	.st8{fill:#EFBD9C;}
	.st9{fill:#07354F;}
	.st10{fill:none;stroke:#4C8DC8;stroke-width:0.5;stroke-miterlimit:10;}
	.st11{fill:#FFFFFF;}
	.st12{fill:#F7F7F7;}
	.st13{fill:none;stroke:#CCE9FF;stroke-miterlimit:10;}
	.st14{fill:none;stroke:#2A94F4;stroke-miterlimit:10;}
	.st15{fill:#F6B95F;}
	.st16{fill:#FFFFFF;stroke:#4C8DC8;stroke-width:0.75;stroke-miterlimit:10;}
</style>
<g xmlns="http://www.w3.org/2000/svg" id="Shape_9_1_" class="st0">
</g>
<g xmlns="http://www.w3.org/2000/svg" id="monitor_1_">
</g>
<g xmlns="http://www.w3.org/2000/svg" id="person_1_">
</g>
<g xmlns="http://www.w3.org/2000/svg" id="pot_1_">
	<path class="st1" d="M63.8,374.7c24.4-44.8,73.8-79,86.1-84.5c79.6-35.7,152.7-103.6,233.5-132.6c80.8-29,173.2-15.2,261.6,101.2   c47.4,62.5,50.8,124.9,14,163.2C521.6,565.3,358.5,612.1,186.3,551.7c-34-11.9-68.5-28.1-103.1-60.4   C40.8,451.9,44.6,410.1,63.8,374.7z"/>
	<path class="st2" d="M66.1,329c31-40.5,85-66.8,98-70.4c84.1-23.2,166.7-79.2,251-95.5c84.3-16.3,173.5,11.3,243.2,139.8   c37.4,69,31.2,131.2-11,163.4C489.5,587,321.2,608.5,160.2,522.6c-31.8-17-63.5-38.2-92.7-75.4C31.6,401.8,41.7,361,66.1,329z"/>
	<path class="st3" d="M394.1,367.3c0,0-5.7-28.8-5.7-28.8l-3.1-15.8c-2.7-21.6-5.7-60-3.8-81.6c3.3-37.1-31.7-65.6-67-63.9   c-35.8,1.8-51.9,28-59.7,60.3c-12.3,51.3,15.5,90.5-2.8,128.2c-0.6,1.3,0.3,2.9,1.8,2.9c11.3,0.3,49.3-0.2,49.3-0.2v-72.8   c0,0,5.1,7.9,13.4,17.5l-11.8,68.4L394.1,367.3z"/>
	<path class="st4" d="M331.4,328.4l53.6,23.7c12.1,5.3,21.2,16,24.8,29l50.7,182.4h-261c-19.2,0-34.3-17-32.4-36.7l13.8-141.7   c1.6-16.7,12.2-31,27.3-37.3l50.5-20.7L331.4,328.4z"/>
	<path class="st4" d="M325.2,563.5v-41.8l-80.8-8.3l11.9-68.7l-3.8-89.3L224.3,340c0,0-35.7-1.3-43.4,45.1   c-1.7,23.6-13.8,141.7-13.8,141.7s-3.1,34.7,32.4,36.7c-0.9,1.3,115.7,0,115.7,0L325.2,563.5z"/>
	<path class="st5" d="M329.4,329.7c2.7,0.6,28.4,12.6,31.8,29.1s-12.5,42.8-55.4,25.1C302.8,384,329.4,329.7,329.4,329.7z"/>
	<path class="st6" d="M273.5,263.3c0,0,23.4-5.7,34.8-45.5C307,221,275.4,217.2,273.5,263.3z"/>
	<path class="st7" d="M338.5,305.6l-7.6,48c0,0-29.1,29.1-41.7-5.1c-3.8-26.5,7.2-55.6,7.2-55.6L338.5,305.6z"/>
	<path class="st8" d="M338.5,305.9c0,0,1.6,22.8-38.7,14c-8.7-12.8-4.3-37.8-4.3-37.8L338.5,305.9z"/>
	<path class="st7" d="M283.6,258.6c0,0-0.7,43.4,32.9,49.7c10.5,2.8,46.9,4.9,50.4-44.8c0.7-42,0-34.3,0-34.3h-75.6L283.6,258.6z"/>
	<path class="st6" d="M309.5,529"/>
	<path class="st7" d="M325.1,527.8c0,0,26.5,5.2,22.7,25.9c-14.5,0.7-24.9,0.4-24.9,0.4L325.1,527.8z"/>
	<circle class="st5" cx="325.3" cy="448.4" r="4.7"/>
	<circle class="st5" cx="325.6" cy="499" r="4.7"/>
	<polygon class="st9" points="325.1,527.8 244.1,507.2 254.3,457.2 261.4,456.7 250,504.1 325.4,526.8  "/>
	<g>
		<path class="st3" d="M273.3,208.9c-20.1,18-20.3,43.7-21.2,68.7c-0.5,12.4-1.1,25.4-5.9,37c-5.3,12.9-16.1,22.4-23.4,34.1    c-6.7,10.8-7.8,27.7,3.3,34c5.4,3.1,12.3,2.7,17.6,5.9c6.5,3.9,9,12.4,8.7,20c-0.3,7.6-2.8,15-3.9,22.5    c-1.9,13.8,3.4,30.7,16.9,34c9,2.2,18.1-2.3,26.2-6.6c9.8-5.3,19.6-10.5,28.5-17.1c7.5-5.5,14.4-12.1,18.3-20.6    c7.2-15.9,1.8-34.6-6.5-50c-8.3-15.3-19.4-29.3-24.6-45.9c-8.5-26.8-0.3-55.7,2.4-83.7c1-11,1-23-5.4-32.1    c-13.2-18.9-43.4-4.9-39.5,17.2"/>
	</g>
	<rect x="97.2" y="562.2" class="st3" width="527" height="13.9"/>
	<line class="st10" x1="65" y1="294.9" x2="115" y2="288.8"/>
	
		<rect x="50.3" y="216.3" transform="matrix(0.9506 -0.3105 0.3105 0.9506 -74.9739 47.0448)" class="st11" width="119.9" height="85.4"/>
	
		<rect x="38.2" y="218.2" transform="matrix(0.9506 -0.3105 0.3105 0.9506 -64.0509 41.4477)" class="st5" width="119.8" height="7.3"/>
	<circle class="st12" cx="46.2" cy="239.3" r="1.5"/>
	<circle class="st12" cx="51.5" cy="237.6" r="1.5"/>
	<circle class="st11" cx="56.5" cy="236" r="1.5"/>
	
		<rect x="56.2" y="228.4" transform="matrix(0.9506 -0.3105 0.3105 0.9506 -76.1197 47.6397)" class="st13" width="110.7" height="68.9"/>
	<g>
		<g>
			<path class="st3" d="M60.9,268.5L55.2,251l0.3-0.1l48.1-15.7l5.7,17.6l-0.3,0.1L60.9,268.5z M55.9,251.3l5.4,16.5l47.3-15.4     l-5.4-16.5L55.9,251.3z"/>
		</g>
		<g>
			<path class="st3" d="M125.2,287.9l-0.1-0.3l-10.8-33.1l0.3-0.1l40.3-13.2l0.1,0.3l10.8,33.1l-0.3,0.1L125.2,287.9z M115,255     l10.5,32.3l39.5-12.9l-10.5-32.3L115,255z"/>
		</g>
		<g>
			<polygon class="st3" points="63,272.9 62.8,272.4 110.6,256.8 110.8,257.3    "/>
		</g>
		<g>
			<polygon class="st3" points="113.5,250.4 113.4,249.8 153,236.9 153.2,237.4    "/>
		</g>
		<g>
			<polygon class="st3" points="111.8,244.9 111.6,244.4 151.2,231.4 151.4,232    "/>
		</g>
		<g>
			<polygon class="st3" points="110.1,239.7 109.9,239.1 149.5,226.2 149.7,226.7    "/>
		</g>
		<g>
			<polygon class="st3" points="108.5,234.9 108.3,234.3 147.9,221.4 148.1,221.9    "/>
		</g>
		<g>
			<polygon class="st3" points="64.7,278.2 64.5,277.6 112.3,262 112.5,262.5    "/>
		</g>
		<g>
			<polygon class="st3" points="66.3,283.1 66.1,282.5 113.9,266.9 114.1,267.5    "/>
		</g>
		<g>
			<polygon class="st3" points="68,288.2 67.8,287.7 115.6,272 115.8,272.6    "/>
		</g>
		<g>
			<polygon class="st3" points="69.7,293.4 69.5,292.9 117.3,277.3 117.5,277.8    "/>
		</g>
		<g>
			<polygon class="st3" points="71.3,298.3 71.1,297.8 118.9,282.2 119.1,282.7    "/>
		</g>
		<g>
			<polygon class="st3" points="73.2,303.5 73,303 120.8,287.3 120.9,287.9    "/>
		</g>
	</g>
	
		<rect x="50.3" y="216.3" transform="matrix(0.9506 -0.3105 0.3105 0.9506 -74.9739 47.0448)" class="st14" width="119.9" height="85.4"/>
	<polygon class="st3" points="225.7,164.4 220.1,164.4 220.1,158.8 217.8,158.8 217.8,164.4 212.2,164.4 212.2,166.7 217.8,166.7    217.8,172.3 220.1,172.3 220.1,166.7 225.7,166.7  "/>
	<polygon class="st3" points="448.7,338.5 444.1,338.5 444.1,333.9 442.2,333.9 442.2,338.5 437.5,338.5 437.5,340.4 442.2,340.4    442.2,345 444.1,345 444.1,340.4 448.7,340.4  "/>
	<polygon class="st5" points="87.6,422.1 82,422.1 82,416.5 79.7,416.5 79.7,422.1 74.1,422.1 74.1,424.4 79.7,424.4 79.7,430    82,430 82,424.4 87.6,424.4  "/>
	<polygon class="st5" points="637.2,382.2 626.7,382.2 626.7,371.6 622.3,371.6 622.3,382.2 611.7,382.2 611.7,386.5 622.3,386.5    622.3,397.1 626.7,397.1 626.7,386.5 637.2,386.5  "/>
	<g>
		<path class="st5" d="M485.4,160.5c-13.4-5.4-28.6,1.5-33.5,14.9c-2.6,7.2-1.5,15,1.3,23.3c1,3,0.9,6.3-0.2,9.3l-0.1,0.3    c-1.6,4.3,0.7,9.2,5,10.7l8.5,3.1c4.3,1.6,9.2-0.7,10.7-5c1.1-3.1,3.3-5.7,6.1-7.3c8.4-4.8,14.9-10.2,17.2-18.7    C503.9,178.6,497.4,165.3,485.4,160.5z"/>
		<path class="st4" d="M478.5,221.2l-2.4-0.9l1.2-3.3l-24.3-8.9l-1.2,3.3l-1.8-0.7c-0.9-0.3-1.9,0.1-2.3,1.1l-0.6,1.7    c-0.3,0.9,0.1,1.9,1.1,2.3l1.8,0.7l-0.8,2.2l-1.8-0.7c-0.9-0.3-1.9,0.1-2.3,1.1l-0.6,1.7c-0.3,0.9,0.1,1.9,1.1,2.3l1.9,0.7    c-0.4,2.7,1.1,5.3,3.7,6.3l0.6,0.2c-0.5,3.2,1.3,6.4,4.5,7.6c3.2,1.2,6.6-0.1,8.3-2.9c2.6,1,5.5-0.1,6.9-2.4l2.5,0.9    c0.9,0.3,1.9-0.1,2.3-1.1l0.6-1.7c0.3-0.9-0.1-1.9-1.1-2.3l-2.4-0.9l0.8-2.2l2.4,0.9c0.9,0.3,1.9-0.1,2.3-1.1l0.6-1.7    C479.9,222.5,479.5,221.5,478.5,221.2z"/>
		<path class="st5" d="M489.5,155.2l-3.6-1.3c-0.5-0.2-0.8-0.8-0.6-1.3l3.6-9.8c0.2-0.5,0.8-0.8,1.3-0.6l3.6,1.3    c0.5,0.2,0.8,0.8,0.6,1.3l-3.6,9.8C490.7,155.1,490.1,155.4,489.5,155.2z"/>
		<path class="st5" d="M505.5,194.3l1.3-3.6c0.2-0.5,0.8-0.8,1.3-0.6l9.8,3.6c0.5,0.2,0.8,0.8,0.6,1.3l-1.3,3.6    c-0.2,0.5-0.8,0.8-1.3,0.6l-9.8-3.6C505.6,195.5,505.3,194.9,505.5,194.3z"/>
		<path class="st5" d="M434.7,168.4l1.3-3.6c0.2-0.5,0.8-0.8,1.3-0.6l9.8,3.6c0.5,0.2,0.8,0.8,0.6,1.3l-1.3,3.6    c-0.2,0.5-0.8,0.8-1.3,0.6l-9.8-3.6C434.8,169.5,434.5,168.9,434.7,168.4z"/>
		<path class="st5" d="M506.1,174.7l-1.6-3.5c-0.2-0.5,0-1.1,0.5-1.4l9.5-4.4c0.5-0.2,1.1,0,1.4,0.5l1.6,3.5c0.2,0.5,0,1.1-0.5,1.4    l-9.5,4.4C506.9,175.5,506.3,175.2,506.1,174.7z"/>
		<path class="st15" d="M457.8,157l3.5-1.6c0.5-0.2,0.7-0.9,0.5-1.4l-4.4-9.5c-0.2-0.5-0.9-0.7-1.4-0.5l-3.5,1.6    c-0.5,0.2-0.7,0.9-0.5,1.4l4.4,9.5C456.7,157,457.3,157.2,457.8,157z"/>
	</g>
	
		<rect x="473.1" y="263.2" transform="matrix(0.9812 -0.1928 0.1928 0.9812 -46.4956 109.0949)" class="st14" width="128.4" height="60.4"/>
	
		<rect x="476.3" y="330.6" transform="matrix(0.9812 -0.1928 0.1928 0.9812 -55.469 98.8447)" class="st16" width="7.6" height="7.6"/>
	
		<rect x="465.2" y="272.8" transform="matrix(0.9812 -0.1928 0.1928 0.9812 -44.5268 95.6042)" class="st16" width="7.6" height="7.6"/>
	
		<rect x="590.5" y="247.9" transform="matrix(0.9812 -0.1928 0.1928 0.9812 -37.3781 119.3046)" class="st16" width="7.6" height="7.6"/>
	
		<rect x="602.3" y="306.9" transform="matrix(0.9812 -0.1928 0.1928 0.9812 -48.5313 122.6958)" class="st16" width="7.6" height="7.6"/>
	<g>
		<path class="st3" d="M485.7,308.7l-3.3-16.6l5.2-1l3.5,17.9c0.3,1.3,0.8,2.3,1.6,2.9c0.8,0.6,1.8,0.8,3,0.6c1.2-0.2,2-0.8,2.6-1.7    c0.5-0.9,0.7-2,0.4-3.3l-3.5-17.9l5.2-1l3.3,16.6c0.7,3.6,0.5,6.3-0.6,8.2c-1.1,1.9-3.2,3.2-6.4,3.8c-3.1,0.6-5.6,0.3-7.3-1.1    C487.7,314.7,486.4,312.3,485.7,308.7z"/>
		<path class="st3" d="M506.2,292.2l-0.9-4.6l15.6-3.1l0.9,4.6l-5.2,1l3.4,17.1l5.2-1l0.9,4.6l-15.6,3.1l-0.9-4.6l5.2-1l-3.4-17.1    L506.2,292.2z"/>
		<path class="st3" d="M539.8,280.9l3.9-0.8l-8,32.3l-3.9,0.8L539.8,280.9z"/>
		<path class="st3" d="M550.8,295.9l-3.3-16.6l5.2-1l3.5,17.9c0.3,1.3,0.8,2.3,1.6,2.9c0.8,0.6,1.8,0.8,3,0.6c1.2-0.2,2-0.8,2.6-1.7    c0.5-0.9,0.7-2,0.4-3.3l-3.5-17.9l5.2-1l3.3,16.6c0.7,3.6,0.5,6.3-0.6,8.2c-1.1,1.9-3.2,3.2-6.4,3.8c-3.1,0.6-5.6,0.3-7.3-1.1    C552.7,301.9,551.4,299.5,550.8,295.9z"/>
		<path class="st3" d="M593.7,297.5l-5.4,1.1l-6.7-7.7l-3.3,9.7l-5.4,1.1l5.1-14.8l-10-11.4l5.4-1.1l6.4,7.4l3.2-9.3l5.4-1.1    l-4.9,14.4L593.7,297.5z"/>
	</g>
	<path class="st5" d="M547.1,414H393.6c-10.4,0-19.1,7.8-20.3,18.1l-13.9,120.7h-50.3c-2.7,0-4.9,2.2-4.9,4.9v0   c0,2.7,2.2,4.9,4.9,4.9h49.2h8.8h185.8l14.4-125.7C568.7,424.6,559.3,414,547.1,414z"/>
	<circle class="st12" cx="464.3" cy="494.6" r="19"/>
</g>
</svg>