<svg xmlns="http://www.w3.org/2000/svg" xmlns:xlink="http://www.w3.org/1999/xlink" version="1.1" x="0px" y="0px" width="500px" height="421px" viewBox="0 0 500 421" enable-background="new 0 0 500 421" xml:space="preserve">
<g xmlns="http://www.w3.org/2000/svg" id="BACKGROUND">
</g>
<g xmlns="http://www.w3.org/2000/svg" id="DESIGNED_BY_FREEPIK">
	<g>
		<g>
			<g>
				<g>
					<polygon fill="#0B4870" points="140.161,300.377 132.661,330.846 131.008,330.846 137.37,300.311      "/>
				</g>
			</g>
			<g>
				<g>
					<polygon fill="#0B4870" points="148.346,300.377 140.844,330.846 139.191,330.846 145.553,300.311      "/>
				</g>
			</g>
			<g>
				<g>
					<polygon fill="#0B4870" points="161.584,300.377 169.086,330.846 170.738,330.846 164.377,300.311      "/>
				</g>
			</g>
			<g>
				<g>
					<path fill="#D3D3D3" d="M168.684,303.416h-32.325c0,0-2.251-2.791-3.76-9.289c-1.696-7.309-5.122-31.719-5.122-31.719       s0.908-2.271,15.119-1.98l25.446,32.158C168.042,292.586,168.912,300.398,168.684,303.416z"/>
				</g>
			</g>
		</g>
		<path opacity="0.5" fill="#522cad" d="M387.279,106.803c0,0,1.578-8.406-4.728-12.607c-6.304-4.203-13.134-2.891-15.497,0    l-0.115,0.121c-1.468-3.025-4.569-5.111-8.158-5.111c-4.736,0-8.623,3.631-9.027,8.262c-1.033-0.41-2.161-0.635-3.34-0.635    c-3.846,0-7.131,2.395-8.447,5.773c-6.309,0.172-11.371,5.342-11.371,11.691c0,6.461,5.238,11.697,11.697,11.697    c1.229,0,43.472-0.541,43.472-0.541s12.607,2.625,12.607-7.879C394.372,107.066,387.279,106.803,387.279,106.803z"/>
		<g>
			<polygon fill="#522cad" points="336.848,166.623 368.494,166.623 368.494,121.307 367.748,121.307 367.748,165.787      336.848,165.787    "/>
		</g>
		<g>
			<path fill="#522cad" d="M365.372,118.932c0-1.516,1.233-2.746,2.748-2.746c1.517,0,2.749,1.23,2.749,2.746     s-1.232,2.75-2.749,2.75C366.605,121.682,365.372,120.447,365.372,118.932z M366.121,118.932c0,1.105,0.896,2,1.999,2     c1.104,0,2.001-0.895,2.001-2c0-1.102-0.896-1.998-2.001-1.998C367.018,116.934,366.121,117.83,366.121,118.932z"/>
		</g>
		<g>
			<polygon fill="#522cad" points="346.117,175.129 377.766,175.129 377.766,121.307 377.018,121.307 377.018,174.135      346.117,174.135    "/>
		</g>
		<g>
			<path fill="#522cad" d="M374.644,118.932c0-1.516,1.231-2.746,2.748-2.746s2.747,1.23,2.747,2.746s-1.23,2.75-2.747,2.75     S374.644,120.447,374.644,118.932z M375.392,118.932c0,1.105,0.897,2,2,2c1.104,0,2-0.895,2-2c0-1.102-0.896-1.998-2-1.998     C376.289,116.934,375.392,117.83,375.392,118.932z"/>
		</g>
		<g>
			<path fill="#0E538C" d="M352.666,145.773v91.4l-1.248,3.037l-0.871-0.777c-1.004,2.525-1.906,5.656-1.781,8.551     c0.062,1.459,0.275,3.453,0.565,5.658l3.114,0.361v1.027l-0.644,0.221l-2.134,0.729c-0.008,0.016-0.008,0.023-0.015,0.039     c0.446,3.139,0.987,6.441,1.442,9.07c-2.503,0.016-5.287,0.064-7.43,0.104c0.022-1.617,0.062-3.57,0.094-5.604     c-0.244,0.008-0.518,0.008-0.801,0.008c-0.305,0-0.619-0.008-0.926-0.016c-0.572-0.008-1.113-0.023-1.475-0.039     c0.008,0.086,0.023,0.15,0.039,0.195c0,0-0.314-0.031-0.832-0.094c-0.493,4.08-1.012,7.562-1.012,7.562l0.689,0.283     c-0.359,1.201-0.838,2.816-1.372,4.654h-167.36c-5.053,0-9.156-4.104-9.156-9.164V145.773c0-5.062,4.104-9.166,9.156-9.166     h172.791C348.562,136.607,352.666,140.711,352.666,145.773z"/>
			<g>
				<path fill="#522cad" d="M224.16,153.662h-38.287c-1.362,0-2.469-1.104-2.469-2.465v-0.314c0-1.363,1.106-2.467,2.469-2.467      h38.287c1.362,0,2.467,1.104,2.467,2.467v0.314C226.627,152.559,225.522,153.662,224.16,153.662z"/>
				<path fill="#522cad" d="M235.402,169.246h-38.285c-1.363,0-2.469-1.104-2.469-2.467v-0.311c0-1.363,1.105-2.469,2.469-2.469      h38.285c1.363,0,2.465,1.105,2.465,2.469v0.311C237.867,168.143,236.766,169.246,235.402,169.246z"/>
				<path fill="#2A94F4" d="M333.183,169.246h-87.13c-1.363,0-2.468-1.104-2.468-2.467v-0.311c0-1.363,1.104-2.469,2.468-2.469      h87.13c1.362,0,2.467,1.105,2.467,2.469v0.311C335.649,168.143,334.545,169.246,333.183,169.246z"/>
				<path fill="#522cad" d="M257.108,180.334h-59.991c-1.363,0-2.469-1.104-2.469-2.467v-0.312c0-1.363,1.105-2.467,2.469-2.467      h59.991c1.362,0,2.466,1.104,2.466,2.467v0.312C259.574,179.23,258.471,180.334,257.108,180.334z"/>
				<path fill="#2A94F4" d="M333.183,180.334h-59.991c-1.363,0-2.467-1.104-2.467-2.467v-0.312c0-1.363,1.104-2.467,2.467-2.467      h59.991c1.362,0,2.467,1.104,2.467,2.467v0.312C335.649,179.23,334.545,180.334,333.183,180.334z"/>
				<path fill="#522cad" d="M275.658,191.42h-78.541c-1.363,0-2.469-1.104-2.469-2.465v-0.312c0-1.361,1.105-2.467,2.469-2.467      h78.541c1.361,0,2.467,1.105,2.467,2.467v0.312C278.125,190.316,277.02,191.42,275.658,191.42z"/>
				<path fill="#2A94F4" d="M333.025,191.42h-35.713c-1.449,0-2.624-1.172-2.624-2.621l0,0c0-1.449,1.175-2.623,2.624-2.623h35.713      c1.449,0,2.624,1.174,2.624,2.623l0,0C335.649,190.248,334.475,191.42,333.025,191.42z"/>
				<circle fill="#FFFFFF" cx="186.029" cy="166.625" r="2.625"/>
				<circle fill="#FFFFFF" cx="186.029" cy="177.711" r="2.625"/>
				<circle fill="#FFFFFF" cx="186.029" cy="188.799" r="2.625"/>
				<path fill="#2A94F4" d="M255.422,200.506h-70.328c-0.933,0-1.689-0.754-1.689-1.686l0,0c0-0.932,0.757-1.688,1.689-1.688h70.328      c0.93,0,1.687,0.756,1.687,1.688l0,0C257.108,199.752,256.352,200.506,255.422,200.506z"/>
				<path fill="#522cad" d="M235.402,225.205h-38.285c-1.363,0-2.469-1.105-2.469-2.467v-0.312c0-1.361,1.105-2.465,2.469-2.465      h38.285c1.363,0,2.465,1.104,2.465,2.465v0.312C237.867,224.1,236.766,225.205,235.402,225.205z"/>
				<path fill="#2A94F4" d="M274.564,225.205h-28.356c-1.45,0-2.623-1.174-2.623-2.623l0,0c0-1.449,1.173-2.621,2.623-2.621h28.356      c1.449,0,2.625,1.172,2.625,2.621l0,0C277.189,224.031,276.014,225.205,274.564,225.205z"/>
				<path fill="#522cad" d="M236.637,236.293h-39.52c-1.363,0-2.469-1.104-2.469-2.467v-0.312c0-1.361,1.105-2.467,2.469-2.467      h39.52c1.361,0,2.467,1.105,2.467,2.467v0.312C239.104,235.189,237.998,236.293,236.637,236.293z"/>
				<path fill="#2A94F4" d="M333.183,236.293h-87.13c-1.363,0-2.468-1.104-2.468-2.467v-0.312c0-1.361,1.104-2.467,2.468-2.467      h87.13c1.362,0,2.467,1.105,2.467,2.467v0.312C335.649,235.189,334.545,236.293,333.183,236.293z"/>
				<path fill="#522cad" d="M275.658,247.381h-78.541c-1.363,0-2.469-1.105-2.469-2.469V244.6c0-1.361,1.105-2.465,2.469-2.465      h78.541c1.361,0,2.467,1.104,2.467,2.465v0.312C278.125,246.275,277.02,247.381,275.658,247.381z"/>
				<path fill="#2A94F4" d="M333.025,247.381h-45.307c-1.449,0-2.623-1.176-2.623-2.625l0,0c0-1.447,1.174-2.621,2.623-2.621h45.307      c1.449,0,2.624,1.174,2.624,2.621l0,0C335.649,246.205,334.475,247.381,333.025,247.381z"/>
				<circle fill="#FFFFFF" cx="186.029" cy="222.582" r="2.625"/>
				<circle fill="#FFFFFF" cx="186.029" cy="233.668" r="2.625"/>
				<circle fill="#FFFFFF" cx="186.029" cy="244.756" r="2.625"/>
				<path fill="#2A94F4" d="M255.422,256.463h-70.328c-0.933,0-1.689-0.754-1.689-1.686l0,0c0-0.93,0.757-1.684,1.689-1.684h70.328      c0.93,0,1.687,0.754,1.687,1.684l0,0C257.108,255.709,256.352,256.463,255.422,256.463z"/>
			</g>
		</g>
		<g opacity="0.5">
			<g>
				<path fill="#522cad" d="M131.764,227.053c1.5,2.102,3.881,3.227,6.293,3.227c1.543,0,3.107-0.459,4.459-1.416      c3.463-2.463,4.267-7.287,1.812-10.75c-2.466-3.465-7.291-4.268-10.754-1.812C130.111,218.766,129.308,223.59,131.764,227.053z       M131.623,221.5c0.289-1.715,1.223-3.217,2.648-4.223c1.137-0.816,2.455-1.201,3.764-1.201c2.037,0,4.051,0.943,5.316,2.732      c1.008,1.416,1.406,3.143,1.115,4.857c-0.289,1.715-1.223,3.217-2.647,4.225c-2.927,2.078-7.001,1.391-9.08-1.535      C131.73,224.941,131.334,223.215,131.623,221.5z M124.604,227.322l-1.91,2.023l3.925,5.521l2.552-1.135      c0.834,0.676,1.747,1.242,2.722,1.703l0.086,2.787l6.679,1.127l0.998-2.605c1.072-0.119,2.121-0.354,3.129-0.719l2.027,1.908      l5.521-3.922l-1.138-2.551c0.665-0.838,1.245-1.75,1.705-2.715l2.787-0.096l1.127-6.68l-2.605-0.996      c-0.119-1.072-0.366-2.113-0.719-3.131l1.908-2.025l-3.924-5.52l-2.552,1.135c-0.837-0.674-1.747-1.244-2.723-1.705      l-0.085-2.787l-6.678-1.125l-0.998,2.605c-1.072,0.117-2.113,0.365-3.131,0.719l-2.026-1.91l-5.52,3.926l1.136,2.549      c-0.664,0.838-1.244,1.748-1.705,2.725l-2.787,0.086l-1.126,6.678l2.606,0.998C124.002,225.262,124.249,226.314,124.604,227.322      z M132.739,226.355c-1.009-1.414-1.405-3.141-1.116-4.855s1.223-3.217,2.648-4.223c1.137-0.816,2.455-1.201,3.764-1.201      c2.037,0,4.051,0.943,5.316,2.732c1.008,1.416,1.406,3.143,1.115,4.857c-0.289,1.715-1.223,3.217-2.647,4.225      C138.893,229.969,134.818,229.281,132.739,226.355z"/>
			</g>
		</g>
		<g opacity="0.5">
			<g>
				<path fill="#522cad" d="M114.164,251.619c1.439,0.365,2.902-0.02,3.965-0.916c0.676-0.57,1.195-1.354,1.436-2.277      c0.607-2.365-0.828-4.785-3.193-5.396c-2.367-0.609-4.787,0.826-5.398,3.191C110.365,248.588,111.801,251.006,114.164,251.619z       M112.043,249.23c-0.508-0.863-0.654-1.867-0.402-2.84c0.2-0.779,0.635-1.439,1.209-1.924c0.896-0.754,2.131-1.088,3.352-0.77      c0.969,0.248,1.785,0.861,2.293,1.721c0.51,0.863,0.654,1.867,0.402,2.84c-0.517,1.998-2.562,3.209-4.561,2.693      C113.367,250.703,112.553,250.092,112.043,249.23z M111.116,254.393l-0.088,1.6l3.772,0.971l0.7-1.445      c0.618-0.012,1.229-0.102,1.83-0.258l1.071,1.189l3.354-1.98l-0.529-1.516c0.43-0.449,0.804-0.941,1.111-1.477l1.599,0.086      l0.972-3.77l-1.445-0.701c-0.02-0.617-0.102-1.229-0.256-1.824l1.189-1.076l-1.982-3.355l-1.517,0.527      c-0.448-0.426-0.942-0.793-1.476-1.109l0.086-1.598l-3.771-0.973l-0.7,1.445c-0.617,0.014-1.229,0.102-1.831,0.262l-1.07-1.195      l-3.354,1.984l0.527,1.514c-0.428,0.449-0.793,0.945-1.108,1.477l-1.599-0.088l-0.974,3.773l1.446,0.701      c0.018,0.613,0.102,1.23,0.262,1.828l-1.195,1.072l1.982,3.355l1.516-0.529C110.088,253.713,110.586,254.08,111.116,254.393z       M114.336,250.951c-0.969-0.248-1.783-0.859-2.293-1.721c-0.508-0.863-0.654-1.867-0.402-2.84      c0.2-0.779,0.635-1.439,1.209-1.924c0.896-0.754,2.131-1.088,3.352-0.77c0.969,0.248,1.785,0.861,2.293,1.721      c0.51,0.863,0.654,1.867,0.402,2.84C118.38,250.256,116.334,251.467,114.336,250.951z"/>
			</g>
		</g>
		<g>
			<path fill="#FFFFFF" d="M251.075,171.314c0,0,1.245,1.092,2.364,2.77s5.752,3.805,5.879,6.096     c0.126,2.289-5.701,0.32-7.887-0.422c-2.187-0.748-2.518-2.982-3.84-3.543c-1.322-0.559-2.009-1.014-1.906-2.104     c0.103-1.092,0.832-2.865,0.832-2.865s0.822,0.264,1.306,0.316C248.306,171.615,249.932,171.635,251.075,171.314z"/>
			<path fill="#2A94F4" d="M236.09,109.266c0,0,0.838,4.982,1.513,8.271l0,0c0.275,1.336,0.521,2.393,0.675,2.727     c0.193,0.416,1.767,2.105,3.69,4.088c3.379,3.477,7.84,7.855,7.84,7.855l1.745-3.311c0,0-3.965-4.646-6.65-7.748     c-1.244-1.436-2.215-2.537-2.393-2.697c-0.562-0.502-1.213-5.455-2.129-9.533c-0.918-4.082-2.754-6.334-2.754-6.334     L236.09,109.266z"/>
			<path fill="#EEA886" d="M241.968,124.352c3.379,3.477,7.84,7.855,7.84,7.855l1.745-3.311c0,0-3.965-4.646-6.65-7.748     C244.078,121.553,242.566,122.516,241.968,124.352z"/>
			<g>
				<path fill="#FFFFFF" d="M220.309,169.949c0,0-1.146,1.27-1.824,2.039c-0.68,0.768-5.398,4.359-5.411,6.643      c-0.015,2.477,4.036,0.043,5.757-0.049c1.717-0.09,3.114-1.277,3.837-2.68c0.724-1.402,2.649-1.77,2.785-2.9      c0.135-1.131-0.892-3.166-0.892-3.166L220.309,169.949z"/>
			</g>
			<path fill="#0B4870" d="M224.338,167.729l0.223,2.107c0,0-3.588,1.562-4.252,0.113l0.155-1.875L224.338,167.729z"/>
			<path fill="#0B4870" d="M250.881,169.789l0.194,1.525c0,0-2.168,0.766-4.558-0.068l-0.047-1.357L250.881,169.789z"/>
			<path fill="#2A94F4" d="M220.106,131.533c-0.124,0.443,22.96,0,22.96,0s-6.385-4.648-6.8-5.889     c-0.413-1.242,1.627-8.693,1.892-11.117c0.215-1.941,0.747-10.619-0.531-11.943c-1.336-1.387-6.148-2.838-6.148-2.838     l-7.017,0.26c0,0-1.159,0.242-1.986,0.625c-0.827,0.385-5.562,2.072-6.33,4.436c-0.769,2.367,4.724,9.971,4.724,9.971     s0.01,0.342,0.026,0.9l0,0c0.022,0.75,0.052,1.883,0.081,3.115c0.037,1.594,0.069,3.35,0.069,4.631     C221.046,126.699,220.23,131.09,220.106,131.533z"/>
			<path fill="#CCE9FF" d="M220.106,131.533c0,0-3.141,4.611-3.185,7.76c-0.043,3.148,1.164,11.881,1.252,13.607     c0.088,1.73,1.715,16.145,1.715,16.145s1.258,1.166,5.025-0.297c0,0,0.833-13.668,0.921-15.131c0.09-1.465,0.09-8.203,0.932-9.18     c0.843-0.975,5.942-4.035,6.606-4.611c0.666-0.578,12.253,2.189,13.469,2.504c3.144,0.816,1.711,6.287,1.015,8.738     c-1.163,4.104-2.181,18.922-2.181,18.922s2.239,0.953,5.99,0.148c0,0,7.365-26.758,7.603-29.418     c0.236-2.66,0.353-7.047-17.8-10.383L220.106,131.533z"/>
			<path fill="#EEA886" d="M229.553,84.5c0,0,6.091-1.375,4.699,6.291c-1.391,7.664-2.855,8.268-6.529,6.682     c-3.677-1.586-3.347-6.498-3.533-8.906C224.007,86.158,227.609,84.584,229.553,84.5z"/>
			<path fill="#EEA886" d="M231.165,101.713c0,0-2.698,2.859-6.961,0.26c0,0,0.952-6.197,0.452-9.217     c-0.503-3.018,5.561,4.678,5.561,4.678c-0.078,0.043-0.132,0.33-0.145,0.74c-0.01,0.346,0.01,0.781,0.064,1.229     C230.262,100.406,230.574,101.467,231.165,101.713z"/>
			<path fill="#EEA886" d="M226.286,89.775c-0.08-0.678-1.417-0.924-1.524,0.09c-0.107,1.012,0.607,2.791,1.115,2.617     C226.384,92.307,226.396,90.707,226.286,89.775z"/>
			<path fill="#0B4870" d="M224.486,92.5c0,0,0.157-2.414,1.04-2.49c0.882-0.074,1.018,0.896,1.018,0.896l0.891,0.17     c0,0-0.28-2.117,0.601-2.488c0.88-0.369,5.707,1.166,6.414,0.545c0.706-0.621,2.597-3.355,1.317-3.943     c-1.278-0.588-7.032-3.465-9.62-1.713c0,0-2.018-0.23-2.316,1.398S223.939,91.291,224.486,92.5z"/>
			<path fill="#A77860" d="M230.137,99.402c-4.398-1.355-4.729-4.006-4.734-4.047c1.449,2.49,4.67,2.818,4.67,2.818     C230.062,98.52,230.082,98.955,230.137,99.402z"/>
			<path fill="#2A94F4" d="M245.708,131.209c0,0-15.942,1.965-25.602,0.324l18.456-2.307     C238.562,129.227,238.672,129.697,245.708,131.209z"/>
			<path fill="#EEA886" d="M233.784,128.502l1.187,0.6c0,0-0.27,1.887-0.92,2.459l-1.332-0.34     C232.719,131.221,232.996,129.152,233.784,128.502z"/>
			<path fill="#2A94F4" d="M215.336,124.637c0.237,0.277,3.371,1.537,6.912,2.9l0,0c4.837,1.863,10.295,3.627,10.295,3.627     l1.241-2.662c0,0-5.714-3.105-9.575-5.283c-1.823-1.029-3.233-1.85-3.434-2.039c-0.62-0.592-0.781-1.541-0.324-3.193     c0.455-1.654,1.508-9.254,1.625-10.141c0.119-0.887-0.295-3.252-2.513-3.369c-2.217-0.121-3.345,0.506-3.345,0.506     s-0.559,0.232-0.971,5.613C214.833,115.977,214.773,123.986,215.336,124.637z"/>
			<path fill="#EEA886" d="M222.248,127.537L222.248,127.537c4.837,1.863,10.471,3.684,10.471,3.684l1.065-2.719     c0,0-5.714-3.105-9.575-5.283C224.209,123.219,222.804,123.902,222.248,127.537z"/>
			<polygon fill="#F7F7F7" points="234.127,131.377 256.788,131.045 245.347,136.855    "/>
			<polygon fill="#D3D3D3" points="245.347,136.855 234.127,132.508 234.127,131.377 246.232,135.746    "/>
			<g>
				<path fill="#EEA886" d="M234.715,129.145c0,0,1.416-0.221,2.393-0.449c0.759-0.176,2.641,0.066,3.12,0.553      c0.48,0.486,2.005,3.871,2.292,4.078c0.289,0.207-0.146,0.686-0.653,0.445c0,0-0.466,1.48-1.612,0.926      c-1.147-0.555-1.927-1.766-2.528-1.979s-4.101-1.289-4.101-1.289S233.812,128.783,234.715,129.145z"/>
			</g>
			<g>
				<path fill="#EEA886" d="M239.883,129.027c0,0,0.908,0.439,1.146,0.633c0.237,0.197,1.199,0.918,1.434,1.086      c0.232,0.172-0.354,0.652-2.074-0.092C238.67,129.908,239.883,129.027,239.883,129.027z"/>
			</g>
			<polygon fill="#D3D3D3" points="245.347,136.855 252.087,118.451 273.816,118.807 267.393,135.766    "/>
			
				<ellipse transform="matrix(-0.8946 -0.4468 0.4468 -0.8946 436.9802 357.8817)" fill="#F7F7F7" cx="260.688" cy="127.417" rx="1.843" ry="2.685"/>
		</g>
		<g>
			<g>
				<g>
					<g>
						<g>
							<g>
								<path fill="#EEA987" d="M377.82,243.285c-0.008,0.008-0.016,0.008-0.016,0.008c-0.008,0.016-0.023,0.031-0.039,0.047          c-0.974,0.848-2.315,1.193-2.455,1.383c-0.079,0.109-0.346,0.328-0.551,0.494c-0.141,0.107-0.25,0.188-0.25,0.188          l-1.932-1.703c0,0,0.377-0.346,0.629-0.777c0.172-0.281,0.283-0.611,0.203-0.895c-0.18-0.611,0.086-1.293,0.15-1.576          c0.086-0.377,0.125-1.592,0.406-1.521c0.473,0.109,0.361,2.055,0.417,2.471c0.056,0.338,0.933-0.564,1.467-0.902          c0,0,0.04-0.031,0.11-0.078c0.062-0.039,0.117-0.062,0.164-0.07c0.126-0.025,0.385,0.141,0.675,0.4          c0.017,0.016,0.024,0.031,0.04,0.047c0.212,0.188,0.431,0.432,0.627,0.697c0.008,0.008,0.008,0.016,0.016,0.025          c0.188,0.258,0.354,0.541,0.439,0.807c0.009,0.008,0.009,0.023,0.016,0.039C378.049,242.713,378.039,243.043,377.82,243.285          z"/>
							</g>
						</g>
					</g>
				</g>
				<g>
					<g>
						<g>
							<g>
								<path fill="#EEA987" d="M375.854,240.5c0,0,3.144-2.41,3.486-2.396c0.345,0.018,0.466,0.193,0.181,0.432          s-2.97,2.416-2.97,2.416s4.199-2.227,4.485-2.277c0.165-0.029,0.291,0.289,0.15,0.432c-0.141,0.141-4.049,2.598-4.049,2.598          s3.924-2.072,4.174-2.041c0.221,0.025,0.377,0.389,0.096,0.561c-0.279,0.174-3.815,2.303-3.815,2.303          s2.952-1.326,3.149-1.178c0.119,0.092,0.29,0.293-0.482,0.613c-0.771,0.318-2.453,1.336-2.453,1.336L375.854,240.5z"/>
							</g>
						</g>
					</g>
				</g>
			</g>
			<g>
				<path fill="#0B4870" d="M361.625,241.504l-1.521-3.326c-0.008-0.023-0.016-0.047-0.032-0.07c-1.073-2.418-2.997-3.242-4.439-3.5      l0.007-6.121v-2.525c1.405-2.598,2.143-5.83,0.525-8.066c0.832,0.018,2.504,0.172,3.987,1.107      c1.553,0.965,2.894,2.785,2.808,6.189c-0.205,7.965-1.35,9.527,0.008,14.689C363.47,241.795,362.764,242.029,361.625,241.504z"/>
			</g>
			<g>
				<g>
					<path fill="#0B4870" d="M333.246,329.955l-0.008,0.008c-0.009,0.125-0.031,0.244-0.07,0.336       c-0.174,0.418-0.307,0.943-0.432,1.531c-0.471,2.205-0.793,5.195-2.205,5.752c-1.789,0.713-4.724,0.619-5.107,0       c-0.314-0.512,1.514-3.256,2.18-4.215c0,0-0.008,0,0-0.008c0.143-0.203,0.229-0.32,0.229-0.32       c2.04-2.174,2.087-4.213,1.945-5.211c-0.055-0.4-0.141-0.635-0.141-0.635s0.73-0.346,1.554-0.369       c0.188-0.008,0.384,0,0.572,0.031c0.228,0.039,0.44,0.189,0.629,0.416c0.015,0.008,0.015,0.016,0.022,0.023       s0.017,0.016,0.023,0.031C332.972,327.994,333.309,329.217,333.246,329.955z"/>
				</g>
			</g>
			<g>
				<g>
					<g>
						<path fill="#EEA886" d="M332.414,327.287c0,0,0,0,0,0.008c-0.008,0.023-0.016,0.055-0.031,0.102l-0.008,0.01v0.006        c0,0.008,0,0.008,0,0.008c-0.078,0.283-0.25,0.973-0.4,2.088c-0.204,1.592-0.809,4.252-1.742,5.17s-3.232,0.596-3.318,0.244        c-0.039-0.156,0.291-0.785,0.689-1.555c0,0-0.008,0,0-0.008c0.504-0.98,1.115-2.189,1.209-2.926        c0.133-0.996,0.416-2.016,0.605-2.645c0.115-0.383,0.203-0.627,0.203-0.627c0.407-0.439,1.02-0.455,1.569-0.338        c0.58,0.119,1.091,0.385,1.201,0.447C332.406,327.279,332.414,327.287,332.414,327.287z"/>
					</g>
				</g>
			</g>
			<g>
				<g>
					<path fill="#0B4870" d="M357.648,329.955v0.031c-0.009,0.117-0.039,0.229-0.072,0.312c-0.172,0.426-0.305,0.967-0.438,1.57       c-0.473,2.197-0.801,5.156-2.198,5.713c-1.789,0.713-4.73,0.619-5.107,0c-0.384-0.621,2.307-4.48,2.307-4.48l0.009-0.008       c2.462-2.645,2.023-5.092,1.859-5.713c-0.033-0.094-0.049-0.148-0.049-0.148l0.01-0.008c0.117-0.047,1.24-0.541,2.204-0.369       c0.095,0.016,0.181,0.047,0.267,0.102C357.201,327.389,357.734,329.045,357.648,329.955z"/>
				</g>
			</g>
			<g>
				<g>
					<g>
						<path fill="#EEA886" d="M356.385,329.508c-0.086,1.6-0.809,4.252-1.742,5.17c-0.941,0.918-3.24,0.596-3.326,0.244        c-0.041-0.174,0.361-0.934,0.823-1.82l0.009-0.008c0.501-0.967,1.081-2.072,1.254-2.746c0.291-1.082,0.486-2.543,0.541-2.98        c0.009-0.088,0.016-0.135,0.016-0.135l0.01-0.008c0.894-0.965,2.204-0.369,2.204-0.369s0.022,0.088,0.062,0.26        C356.313,327.516,356.447,328.369,356.385,329.508z"/>
					</g>
				</g>
			</g>
			<g>
				<g>
					<g>
						<path fill="#0B4870" d="M343.76,259.59c-0.031,2.033-0.071,3.986-0.094,5.604c-0.017,0.971-0.031,1.818-0.039,2.486        c-0.009,0.078-0.009,0.156-0.009,0.227c-0.008,0.621-0.635,1.027-1.2,0.801l-2.777-1.137l-0.197-0.08l-0.689-0.283        c0,0,0.519-3.482,1.012-7.562c0.518,0.062,0.832,0.094,0.832,0.094c-0.016-0.045-0.031-0.109-0.039-0.195        c0.361,0.016,0.902,0.031,1.475,0.039c0.307,0.008,0.621,0.016,0.926,0.016C343.242,259.598,343.516,259.598,343.76,259.59z"/>
						<path fill="#EEA886" d="M343.736,292.105c-0.039,0.125-0.087,0.258-0.133,0.383c-0.479,1.35-3.807,9.127-3.807,15.08        c0,4.018-5.939,17.656-7.359,19.758c-0.007-0.016-0.016-0.023-0.023-0.031c0-0.008,0-0.008,0-0.008s-0.008-0.008-0.022-0.016        c-0.188-0.227-0.401-0.377-0.629-0.416c-0.188-0.031-0.384-0.039-0.572-0.031c-0.55-0.117-1.162-0.102-1.569,0.338        c0,0-0.088,0.244-0.203,0.627c0,0,3.609-17.113,3.498-17.975c-0.109-0.855,2.221-9.949,2.386-12.359        c0.054-0.84,0.274-3.084,0.571-5.789C337.82,291.807,340.669,291.955,343.736,292.105z"/>
						<path fill="#EEA886" d="M358.926,292.764c-0.062,0.832-0.125,1.701-0.18,2.621c-0.102,1.719-0.164,7.18-0.219,11.141        c-0.056,3.838-1.657,19.279-2.088,20.432c-0.086-0.055-0.172-0.086-0.267-0.102c0,0-1.311-0.596-2.204,0.369l-0.01,0.008        c0,0-0.007,0.047-0.016,0.135c0,0-1.192-15.199-1.467-18.525c-0.273-3.336,0.109-9.941-0.393-11.896        c-0.141-0.58-0.344-2.299-0.564-4.488C354.596,292.592,357.31,292.701,358.926,292.764z"/>
						<path fill="#313657" d="M349.653,256.02c0.446,3.139,0.987,6.441,1.442,9.07c-2.503,0.016-5.287,0.064-7.43,0.104        c0.022-1.617,0.062-3.57,0.094-5.604c-0.244,0.008-0.518,0.008-0.801,0.008c0.252-0.322,0.527-0.658,0.816-0.98        c0.268-0.314,0.549-0.619,0.848-0.918c0.07-0.078,0.149-0.148,0.228-0.227c0.723-0.699,1.515-1.328,2.354-1.783        c0.203-0.125,0.416-0.227,0.627-0.312c0.541-0.244,1.106-0.408,1.672-0.473c0.055,0,0.102-0.006,0.149-0.006        c0.274-0.016,0.54-0.016,0.815,0.006c0.439,0.049,0.887,0.158,1.333,0.348l-2.134,0.729        C349.66,255.996,349.66,256.004,349.653,256.02z"/>
					</g>
				</g>
			</g>
			<g>
				<g>
					<polygon fill="#0B4870" points="333.244,329.955 333.244,334.061 332.732,334.061 332.732,330.887      "/>
				</g>
			</g>
			<g>
				<g>
					<polygon fill="#0B4870" points="357.651,329.955 357.651,334.061 357.141,334.061 357.141,330.887      "/>
				</g>
			</g>
			<g>
				<path fill="#EEA886" d="M353.506,228.793c-0.166,1.146-0.393,3.139-0.283,4.756c0.016,0.305,0.046,0.596,0.094,0.863      c0,0.008,0,0.008,0,0.016c0.008,0.062,0.023,0.125,0.031,0.188c0.047,0.188,0.095,0.369,0.148,0.527l-0.493,1.207      c-0.103,0.016-0.22,0.031-0.337,0.039c-0.229,0.008-0.473,0.008-0.738,0c-0.291-0.016-0.604-0.047-0.919-0.078h-0.007      c-0.031-0.008-0.062-0.008-0.094-0.016c-0.141-0.016-0.291-0.039-0.432-0.055h-0.008c-0.989-0.141-1.938-0.346-2.456-0.463      h-0.009c-0.242-0.055-0.392-0.096-0.392-0.096s0.259-0.611,0.581-1.506c0.023-0.078,0.055-0.164,0.086-0.252l0.212-0.635v-0.008      l0.007-0.008c0.088-0.281,0.182-0.58,0.268-0.887c0.023-0.078,0.048-0.164,0.062-0.25c0.063-0.229,0.119-0.455,0.166-0.684      c0.021-0.133,0.055-0.258,0.077-0.385c0.173-0.965,0.221-1.883,0-2.543c-0.524-1.553,2.103-1.207,3.595-0.893      c0.572,0.117,0.98,0.234,0.98,0.234S353.584,228.229,353.506,228.793z"/>
			</g>
			<g>
				<path fill="#F2F2F2" d="M353.348,234.615c-0.102-0.008-0.18-0.016-0.234-0.023c-0.047,0-0.072,0-0.072,0l-0.133-0.008      l-0.242-0.023l-0.299-0.023l-0.164-0.016l-4.002-0.346c0,0,0,0-0.008,0c-0.031,0.008-0.134,0.023-0.299,0.055      c-0.062,0.008-0.126,0.023-0.204,0.039c-0.102,0.016-0.219,0.039-0.353,0.062c-1.152,0.229-3.279,0.684-5.053,1.295      c-1.82,0.629-4.041,3.25-5.187,4.738c-0.486,0.629-0.784,1.053-0.784,1.053s0.939,2.213,2.062,4.936      c0.707,1.734,1.491,3.672,2.15,5.375c0,0,0,0,0,0.008c0.126,0.322,0.243,0.619,0.353,0.918c0.448,1.186,0.809,2.205,0.997,2.871      c0.102,0.361,0.164,0.777,0.196,1.248c0.007,0.008,0.007,0.023,0.007,0.031c0.025,0.307,0.032,0.627,0.032,0.965      c0,0.572-0.032,1.186-0.079,1.812c0.307,0.008,0.621,0.016,0.926,0.016c0.283,0,0.557,0,0.801-0.008      c-0.031,2.033-0.071,3.986-0.094,5.604c2.143-0.039,4.927-0.088,7.43-0.104c-0.455-2.629-0.996-5.932-1.442-9.07      c0.007-0.016,0.007-0.023,0.015-0.039l2.134-0.729l0.644-0.221v-1.027l-3.114-0.361c-0.29-2.205-0.503-4.199-0.565-5.658      c-0.125-2.895,0.777-6.025,1.781-8.551l0.871,0.777l1.248-3.037l0.337-0.824l0.493-1.207l0.205-0.496      C353.568,234.631,353.442,234.623,353.348,234.615z"/>
			</g>
			<g>
				<path fill="#EEA886" d="M353.313,234.424l-5.703,4.648l0.589-4.896C348.199,234.176,351.523,233.459,353.313,234.424z"/>
			</g>
			<g>
				<path fill="#494F80" d="M352.445,254.004v1.027l-0.644,0.221l-2.134,0.729c-0.008,0.016-0.008,0.023-0.015,0.039v-0.039      c-0.024-0.164-0.048-0.322-0.071-0.479c-0.009-0.062-0.016-0.125-0.023-0.18c-0.023-0.127-0.039-0.252-0.055-0.379v-0.039      c-0.063-0.43-0.117-0.846-0.173-1.262L352.445,254.004z"/>
				<path fill="#494F80" d="M353.764,234.646h-0.062l-0.205,0.496l-0.493,1.207l-0.337,0.824l-1.248,3.037l-0.871-0.777      c0.471-1.17,0.966-2.213,1.381-3.045c0.291-0.58,0.549-1.051,0.738-1.396c0.015-0.023,0.023-0.039,0.039-0.062v-0.008      c0.007,0,0.007-0.008,0.007-0.008c0.079-0.133,0.142-0.244,0.196-0.33c0.086-0.148,0.133-0.227,0.133-0.227      c0.072,0.016,0.133,0.023,0.205,0.039h0.008c0.023,0.006,0.047,0.006,0.062,0.016c0.148,0.029,0.299,0.062,0.439,0.102      C353.756,234.561,353.756,234.607,353.764,234.646z"/>
			</g>
			<g>
				<path fill="#0B4870" d="M347.879,234.357c0,0-0.769,1.734-1.625,4.135c-1.059,2.957-2.243,6.912-2.306,9.861      c-0.024,1.162-0.056,2.793-0.086,4.646c-0.017,1.035-0.031,2.133-0.056,3.264c0,0.172,0,0.344-0.008,0.518      c-0.008,0.393-0.008,0.793-0.016,1.184c0,0.008,0,0.008,0,0.018c-0.008,0.203-0.008,0.422-0.008,0.635      c-0.008,0.33-0.016,0.65-0.016,0.973c-0.244,0.008-0.518,0.008-0.801,0.008c-0.305,0-0.619-0.008-0.926-0.016      c-0.572-0.008-1.113-0.023-1.475-0.039c0.008,0.086,0.023,0.15,0.039,0.195c0,0-0.314-0.031-0.832-0.094      c0.087-0.736,0.174-1.506,0.26-2.268c0.007-0.086,0.016-0.18,0.022-0.266c0.071-0.605,0.134-1.209,0.188-1.807      c0.095-0.932,0.173-1.842,0.229-2.697c0.023-0.299,0.047-0.588,0.062-0.871c0-0.008,0-0.008,0-0.008      c0.055-0.904,0.086-1.727,0.086-2.426l-2.236-2.949l-3.036-4.01c0,0,0.651-0.879,1.569-2.002      c1.357-1.662,3.303-3.859,4.566-4.486c1.758-0.879,4.936-1.459,5.932-1.625l0.008-0.008c0.196-0.031,0.307-0.047,0.307-0.047      l-0.032,0.094l-0.062,0.172c0.054-0.021,0.101-0.045,0.164-0.053h0.008C347.824,234.373,347.855,234.363,347.879,234.357z"/>
			</g>
			<g>
				<path fill="#EEA886" d="M349.699,255.816c-0.007,0.055-0.016,0.109-0.031,0.164c-0.008,0.016-0.008,0.023-0.015,0.039      c-0.519,1.695-4.347,3.359-4.944,3.508c-0.148,0.039-0.502,0.062-0.949,0.062c-0.244,0.008-0.518,0.008-0.801,0.008      c-0.305,0-0.619-0.008-0.926-0.016c-0.572-0.008-1.113-0.023-1.475-0.039c-0.275-0.008-0.447-0.016-0.447-0.016V257.4h0.016      c0.041-0.016,0.204-0.07,0.447-0.156c0.346-0.111,0.863-0.275,1.476-0.463c0.007,0,0.017-0.008,0.023-0.008      c0.337-0.102,0.714-0.211,1.098-0.33c0.212-0.055,0.423-0.117,0.636-0.18c1.381-0.377,2.881-0.746,4.025-0.887      c0.181-0.031,0.346-0.047,0.502-0.055c0.463-0.039,0.832-0.018,1.067,0.07c0.07,0.031,0.134,0.062,0.181,0.109      C349.676,255.574,349.723,255.674,349.699,255.816z"/>
			</g>
			<g>
				<polygon fill="#F7F7F7" points="352.445,254.004 350.469,254.904 349.559,255.322 349.401,255.393 344.851,257.473       343.783,257.965 343.604,258.043 342.08,256.805 342.05,256.781 340.236,255.305 336.314,252.121 340.465,252.607       340.88,252.654 342.19,252.803 343.862,253 349.331,253.643     "/>
			</g>
			<g>
				<polygon fill="#D3D3D3" points="352.445,254.004 352.445,255.031 351.802,255.252 349.668,255.98 349.653,255.98       344.623,257.699 343.783,257.982 343.604,258.043 343.305,256.938 343.799,256.781 347.205,255.689 348.334,255.322       349.504,254.943 349.653,254.898     "/>
			</g>
			<g>
				<polygon fill="#F2F2F2" points="348.496,233.271 345.433,238.137 343.949,239.072 347.406,234.229     "/>
			</g>
			<g>
				<polygon fill="#D6C5BE" points="345.433,238.137 347.61,239.072 348.199,234.176 348.496,233.271     "/>
			</g>
			<g>
				<path fill="#0B4870" d="M340.559,259.543c0.008,0.086,0.023,0.15,0.039,0.195c0,0-0.314-0.031-0.832-0.094      c-2.408-0.273-9.281-1.145-10.043-2.291c-0.455-0.689-0.683-1.436-0.785-2.023v-0.008c-0.117-0.613-0.108-1.053-0.108-1.053      l11.219,2.842l0.526,0.133l0.023,0.008c0,0-0.009,0.086-0.016,0.234C340.55,257.959,340.488,259.033,340.559,259.543z"/>
			</g>
			<g>
				<polygon fill="#D3D3D3" points="343.604,258.047 338.896,240.555 321.008,238.666 325.911,254.768     "/>
			</g>
			<g>
				<path fill="#0B4870" d="M375.176,245.826c0,0-4.942,4.348-7.57,6.922c0,0-3.045,3.279-3.963,3.279      c-0.04,0-0.078-0.008-0.11-0.023c-0.675-0.291-2.981-3.561-4.989-6.967c-0.094,0.266-0.205,0.58-0.314,0.926      c-0.102,0.299-0.203,0.627-0.314,0.98c-0.274,0.91-0.572,1.953-0.84,3.061c-0.784,3.256,3.179,13.432,3.179,13.432l-0.911,0.307      l-0.141,0.047l-5.642,1.916c-0.823,0.273-1.711-0.244-1.86-1.107c-0.03-0.195-0.069-0.408-0.108-0.635      c-0.032-0.166-0.056-0.33-0.087-0.512c-0.008-0.039-0.016-0.086-0.023-0.125c-0.055-0.305-0.117-0.643-0.172-0.988      c-0.033-0.15-0.056-0.299-0.079-0.455c-0.048-0.26-0.087-0.52-0.134-0.793c-0.455-2.629-0.996-5.932-1.442-9.07      c0.007-0.016,0.007-0.023,0.015-0.039l2.134-0.729l0.644-0.221v-1.027l-3.114-0.361c-0.29-2.205-0.503-4.199-0.565-5.658      c-0.125-2.895,0.777-6.025,1.781-8.551l0.871,0.777l1.248-3.037l0.337-0.824l0.493-1.207l0.205-0.496h0.062      c-0.008-0.039-0.008-0.086-0.008-0.133c0,0,0.809-0.111,1.876,0.094c1.442,0.258,3.366,1.082,4.439,3.5      c0.017,0.023,0.024,0.047,0.032,0.07l1.521,3.326l2.613,5.713c0,0,0.746,1.303,1.122,1.695c0,0,0.942-0.535,1.429-0.865      c0.901-0.736,1.428-1.012,2.51-1.943c1.68-1.445,3.838-3.281,3.838-3.281l0.07,0.102c-0.252,0.432-0.629,0.777-0.629,0.777      l1.932,1.703c0,0,0.109-0.08,0.25-0.188L375.176,245.826z"/>
				<path fill="#0B4870" d="M374.76,245.217c-0.141,0.107-0.25,0.188-0.25,0.188l-1.932-1.703c0,0,0.377-0.346,0.629-0.777      L374.76,245.217z"/>
			</g>
			<g>
				<path fill="#EEA886" d="M354.281,228.002c-0.251,0.289-0.509,0.549-0.775,0.791c-0.447,0.4-0.912,0.746-1.383,1.029      c0,0,0,0.008-0.014,0.016c-0.017,0.008-0.033,0.016-0.056,0.029c-0.368,0.221-0.737,0.41-1.099,0.566      c-0.031,0.023-0.062,0.031-0.094,0.039c-0.217,0.09-0.434,0.172-0.637,0.244c-0.175,0.062-0.346,0.119-0.516,0.17      c-0.246,0.076-0.445,0.131-0.551,0.158c-0.055,0.018-0.087,0.023-0.087,0.023c-1.114,0.26-2.024,0.291-2.472,0.252      c-1.191-0.111-1.898-3.625-1.898-3.625s-0.996-0.314-1.225-0.494c-0.227-0.18,1.068-3.17,0.863-4.262      c-0.203-1.09-0.203-2.447-0.203-2.447c0.078-0.33,0.18-0.643,0.291-0.934C346.027,221.182,351.285,226.393,354.281,228.002z"/>
			</g>
			<g>
				<polygon fill="#D6C5BE" points="349.26,238.283 347.61,239.072 353.21,233.521     "/>
			</g>
			<g>
				<polygon fill="#F2F2F2" points="353.756,234.514 353.701,234.646 353.496,235.143 353.003,236.35 352.666,237.174       351.418,240.211 350.547,239.434 349.26,238.281 350.656,236.592 350.664,236.584 350.908,236.295 352.367,234.537       352.666,234.176 352.673,234.168 353.207,233.523 353.223,233.549     "/>
			</g>
			<g>
				<path fill="#A77860" d="M352.127,229.822c-0.026,0.041-0.883,1.373-3.296,2.316c0.058-0.229,0.112-0.459,0.161-0.688      c0.026-0.129,0.053-0.258,0.076-0.387C349.068,231.064,351.064,230.576,352.127,229.822z"/>
			</g>
			<g>
				
					<ellipse transform="matrix(0.8831 -0.4692 0.4692 0.8831 -77.7232 184.7975)" fill="#F7F7F7" cx="331.951" cy="248.357" rx="1.041" ry="1.92"/>
			</g>
		</g>
		<g>
			<path fill="#FCD2B1" d="M180.144,279.893c0,0,1.106,0.223,1.636,0.238c0.529,0.018,2.973-1.092,3.758-0.986     c0.781,0.105,5.886,2.273,6.117,2.434c0.23,0.158-0.109,0.506-0.109,0.506l-11.719,0.141L180.144,279.893z"/>
			
				<rect x="176.19" y="282.056" transform="matrix(1 -0.0075 0.0075 1 -2.1213 1.4054)" fill="#D3D3D3" width="19.491" height="1.785"/>
			
				<rect x="187.944" y="273.292" transform="matrix(0.2924 -0.9563 0.9563 0.2924 -122.3199 383.0551)" fill="#D3D3D3" width="19.493" height="1.786"/>
			<g>
				<path fill="#D3D3D3" d="M160.094,319.836l-0.751,1.627c0,0-3.167-1.18-3.184-1.221c-0.016-0.039,0.872-2.258,0.872-2.258      L160.094,319.836z"/>
			</g>
			<g>
				<path fill="#D3D3D3" d="M187.212,319.801l0.874,2.559c0,0-3.473,0.768-3.979,0.727c-0.044-0.004-0.656-2.898-0.656-2.898      L187.212,319.801z"/>
			</g>
			<path fill="#0B4870" d="M183.72,322.34c0,0,2.427-0.66,2.5-0.766c0.071-0.105,0.963-0.707,1.422-0.629s0.5,0.625,0.959,0.738     c0.46,0.111,4.007,1.246,4.499,1.537c0.492,0.289,4.746-0.742,5.197-0.133c0.451,0.607-1.015,2.381-4.703,2.936     c-3.688,0.553-7.637,2.199-8.52,1.975C184.189,327.773,183.585,323.324,183.72,322.34z"/>
			<path fill="#0B4870" d="M155.91,319.809c0,0,2.251,0.961,2.368,0.924c0.12-0.037,1.162,0.041,1.466,0.377     c0.305,0.336,0.004,0.779,0.287,1.143c0.281,0.361,1.887,2.484,2.355,2.975c0.384,0.4,4.633,1.285,5.309,1.99     c0.509,0.533-2.231,2.15-5.814,1.135c-3.49-0.99-7.811-2.707-8.348-3.408C152.994,324.238,155.215,320.479,155.91,319.809z"/>
			<g>
				<path fill="#0E538C" d="M158.219,287.896c0,0,9.898,4.402,11.995,5.906c2.099,1.504,6.69,4.277,6.843,4.955      s1.062,0.018-0.566,3.406c-1.628,3.389-9.329,11.543-10.051,12.43c-0.754,0.926-6.096,6.463-6.096,6.463l-4.018-3.025      c0,0,7.725-11.359,8.843-13.029s1.623-1.916,0.961-2.656c-0.661-0.736-3.302-0.727-16.896-6.357      c-1.359-0.562-5.15-1.865-5.65-3.689c-0.901-3.297-0.127-7.475,3.526-9.311C150.766,281.15,158.219,287.896,158.219,287.896z"/>
			</g>
			<g>
				<path fill="#FCD2B1" d="M162.926,256.031c-0.087,0.078-0.182,0.246-0.281,0.477c-0.142,0.332-0.292,0.793-0.438,1.303      c-0.448,1.57-0.856,3.584-0.856,3.584s-5.665-4.721-4.864-5.018c0.801-0.295,1.394-1.676,1.394-1.676      S163.522,255.504,162.926,256.031z"/>
			</g>
			<g>
				<path fill="#0E538C" d="M158.062,286.115c0,0,10.227,2.406,12.756,3.215c2.527,0.807,6.879,2.23,8.047,2.896      c0.621,0.355,1.57,0.885,2.705,4.58c1.289,4.189,4.227,15.971,4.894,17.807c0.418,1.152,1.622,5.686,1.622,5.686l-5.225,0.906      c0,0-6.223-12.529-6.728-15.867c-0.849-5.623-3.029-5.652-3.909-6.166c-0.882-0.51-5.121,0.449-20.202-0.754      c-1.507-0.119-5.628-0.193-6.694-1.82c-1.928-2.939-3.873-6.277-0.88-9.232C147.441,284.412,158.062,286.115,158.062,286.115z"/>
			</g>
			<g>
				<path fill="#FCD2B1" d="M164.923,244.199c0,0,1.771,3.057,1.366,3.889c-0.402,0.832,1.85,2.848,1.479,3.275      c-0.369,0.426-1.131,0.943-1.119,1.068c0.013,0.123-0.654,4.107-1.523,4.195c-0.866,0.09-6.805-0.221-7.297-2.074      c-0.492-1.859-1.941-5.926-2.281-6.684C155.205,247.115,158.629,241.279,164.923,244.199z"/>
			</g>
			<g>
				<path fill="#0B4870" d="M157.603,243.607c-0.495,0.367-0.894,0.756-1.214,1.154c-0.389,0.182-2.684,1.322-2.208,2.555      c0.644,1.66,3.24,6.104,3.458,6.566c0.029,0.062,0.029-0.055,0.008-0.303c0.16-1.57,2.092-3.328,2.092-3.328l1.029-0.467      c-0.537-0.998-0.325-1.932-0.325-1.932c1.167-1.25,5.042-2.596,5.042-2.596C165.484,234.484,160.2,241.682,157.603,243.607z"/>
			</g>
			<g>
				<path fill="#FCD2B1" d="M159.357,248.953c-0.275-0.42-1.721-0.352-1.512,0.883c0.213,1.232,1.986,2.223,2.373,1.672      C160.605,250.959,159.648,249.396,159.357,248.953z"/>
			</g>
			<path fill="#522cad" d="M156.486,256.377c0,0-7.176,4.182-8.795,11.484c-1.62,7.301-4.547,20.123-4.6,21.643     c0,0,9.711-4.674,14.971-3.389c0,0,3.312-11.896,5.055-14.709c1.742-2.811-0.848-9.416-0.848-9.416     S159.795,258.025,156.486,256.377z"/>
			<path fill="#997761" d="M162.645,256.508c-0.142,0.332-0.292,0.793-0.438,1.303c-0.848-0.354-2.466-1.846-2.516-1.893     C160.367,256.18,162.645,256.508,162.645,256.508z"/>
			<path fill="#FCD2B1" d="M218.932,283.76h-5.377h-17.894h-20.872c-0.667,0-1.208,0.652-1.208,1.457v0.865h17.474h23.71h5.711     v-0.865C220.476,284.412,219.784,283.76,218.932,283.76z"/>
			<g>
				<path fill="#522cad" d="M159.635,262.033c0,0,1.709,2.422,2.766,4.254c1.197,2.078,2.375,4.131,2.635,4.594      c0.528,0.938,2.408,1.439,3.24,1.797c0.767,0.328,13.51,7.148,13.672,7.135c0.163-0.014-1.373,2.543-1.373,2.543      s-17.695-5.074-18.491-5.803c-0.796-0.727-3.157-4.035-4.123-5.398c-0.92-1.299-2.331-3.428-3.078-4.346      c-0.839-1.025-2.593-4.537-0.362-6.287C157.372,258.283,158.949,261.004,159.635,262.033z"/>
			</g>
		</g>
		<rect x="177.304" y="286.082" fill="#0B4870" width="1.477" height="44.936"/>
		<rect x="216.137" y="286.082" fill="#0B4870" width="1.479" height="44.936"/>
		<path fill="#522cad" d="M360.488,292.826c0,0-0.572-0.023-1.562-0.062c-1.616-0.062-4.33-0.172-7.406-0.307    c-2.487-0.102-5.218-0.227-7.783-0.352c-3.067-0.15-5.916-0.299-7.863-0.439c-1.615-0.111-2.619-0.213-2.619-0.291    c0.408-3.648,2.941-12.797,4.817-19.23c0.534-1.838,1.013-3.453,1.372-4.654l0.197,0.08l2.777,1.137    c0.565,0.227,1.192-0.18,1.2-0.801c0-0.07,0-0.148,0.009-0.227c0.008-0.668,0.022-1.516,0.039-2.486    c2.143-0.039,4.927-0.088,7.43-0.104c0.047,0.273,0.086,0.533,0.134,0.793c0.023,0.156,0.046,0.305,0.079,0.455    c0.055,0.346,0.117,0.684,0.172,0.988c0.008,0.039,0.016,0.086,0.023,0.125c0.031,0.182,0.055,0.346,0.087,0.512    c0.039,0.227,0.078,0.439,0.108,0.635c0.149,0.863,1.037,1.381,1.86,1.107l5.642-1.916l0.141-0.047    C363.877,275.887,360.488,292.826,360.488,292.826z"/>
		<path fill="#0B4870" d="M355.639,225.961c-0.195,0.377-0.407,0.738-0.635,1.076c-0.229,0.344-0.472,0.666-0.723,0.965    c-2.996-1.609-8.254-6.82-9.854-8.443c1.481-4.025,5.311-4.402,7.053-4.127c2.361,0.393,3.844,1.287,4.684,2.463    C357.781,220.131,357.044,223.363,355.639,225.961z"/>
	</g>
</g>
</svg>