<svg xmlns="http://www.w3.org/2000/svg" xmlns:xlink="http://www.w3.org/1999/xlink" version="1.1" x="0px" y="0px" width="500px" height="421px" viewBox="0 0 500 421" enable-background="new 0 0 500 421" xml:space="preserve">
<g xmlns="http://www.w3.org/2000/svg" id="BACKGROUND">
</g>
<g xmlns="http://www.w3.org/2000/svg" id="OBJECTS">
</g>
<g xmlns="http://www.w3.org/2000/svg" id="DESIGNED_BY_FREEPIK">
	<g>
		<path fill="#F2F2F2" d="M265.856,93.445c3.83,2.097,7.42,4.42,10.674,6.896c11.377,8.652,20.529,21.246,31.709,29.922    c10.557,8.191,23.449,10.186,35.529,11.553c21.057,2.387,64.975,25.281,57.045,67.714c-2.885,15.442-13.059,25.93-18.268,39.913    c-5.541,14.875-4.959,33.427-13.781,46.323c-3.881,5.669-9.238,9.414-14.738,12.251c-36.604,18.873-77.709,17.995-116.521,15.915    c-30.635-1.643-79.838,7.036-106.746-14.155c-13.359-10.52-6.412-39.282-15.656-54.729c-7.768-12.981-18.34-21.506-23.533-37.756    c-8.838-27.646,3.76-63.627,25.816-73.442c13.783-6.132,28.385-8.942,42.01-15.678c14.076-6.959,19.5-17.389,30.234-29.729    C209.036,76.139,242.065,80.418,265.856,93.445z"/>
		<g>
			<path fill="#0B4870" d="M357.756,225.215c0,0,0.314-0.181,0.795-0.36c0.742-0.281,1.885-0.574,2.921-0.271     c0,0,0.995,5.957,1.673,8.152c0.063,0.188,0.131,0.397,0.205,0.603c0,0,0.013,0.054,0.043,0.149     c0.612,1.686,1.578,3.788,2.025,5.92c4.191-2.668,12.294-8.643,16.299-8.576l0.009-0.001c1.007,0.019,1.749,0.411,2.11,1.337     c0,0,1.189,5.521-6.596,9.75c-2.717,1.473-5.375,2.332-7.681,2.818c-2.591,0.547-4.737,0.633-6.045,0.611h0.001     c0,0-2.102,0.215-3.049-0.777c-0.944-0.993-1.117-2.844-1.117-2.844l0,0C358.342,237.163,357.756,225.215,357.756,225.215"/>
			<g>
				<path fill="#0B4870" d="M134.885,327.084c0,0-0.923,1.724-1.526,2.406c-0.604,0.685-2.915,1.907-2.927,3.938      c-0.013,2.204,3.896,1.592,5.425,1.512s1.645-1.257,2.289-2.504c0.642-1.246,1.292-1.036,1.412-2.042s-0.624-3.31-0.624-3.31      H134.885z"/>
				<g>
					<path fill="#0B4870" d="M158.158,326.883c0,0,1.885,2.104,3.797,2.545c1.913,0.439,3.25,1.002,3.266,2.209       c0.014,1.208-5.504,2.002-7.694,0.786c-3.265-1.817-3.597-1.27-3.96-2.177c-0.362-0.908,0.435-3.335,0.412-3.623       C153.949,326.266,158.158,326.883,158.158,326.883z"/>
				</g>
				<g>
					<path fill="#81807E" d="M157.947,325.877c0,0,0.249,0.985,0.211,1.006c-0.037,0.021-4.31,0.529-4.18-0.26       c0.104-0.642,0.254-1.34,0.254-1.34L157.947,325.877z"/>
				</g>
				<g>
					<path fill="#81807E" d="M138.881,326.42c0,0,0.18,0.938,0.145,0.962c-0.035,0.022-4.332,0.79-4.309,0.009       c0.019-0.619,0.396-1.342,0.396-1.342L138.881,326.42z"/>
				</g>
				<g>
					<path fill="#2A94F4" d="M152.088,265.857c0,0,3.527,16.123,4.335,21.289c0.947,6.041,1.267,11.031,1.53,14.158       c0.331,3.932,0.395,23.276,0.628,24.427c0.231,1.148-5.147,0.317-5.147,0.317s-2.646-25.274-3.634-29.463       c-0.919-3.899-4.331-20.688-5.17-19.623c-0.838,1.064-1.878,19.591-2.5,22.667c-0.621,3.075-2.511,27.153-2.511,27.153       s-4.28,0.852-5.42-0.111c0,0-0.518-20.75-0.122-26.516c0.15-2.199-2.575-26.349,0.92-36.07       C136.844,258.947,152.088,265.857,152.088,265.857z"/>
				</g>
				<g>
					<g>
						<path fill="#F1B99E" d="M174.201,239.387c0,0,3.105-3.404,3.492-3.441c0.389-0.038,0.557,0.157,0.278,0.487        c-0.278,0.332-2.911,3.385-2.911,3.385s4.32-3.356,4.632-3.461c0.182-0.062,0.524,0.294,0.39,0.487        c-0.132,0.191-4.232,3.782-4.232,3.782s4.04-3.124,4.326-3.13c0.25-0.004,0.488,0.406,0.203,0.66        c-0.284,0.254-3.876,3.384-3.876,3.384s3.079-2.073,3.325-1.925c0.15,0.09,0.459,0.383-0.352,0.893        c-0.81,0.507-2.6,1.923-2.6,1.923L174.201,239.387z"/>
					</g>
					<g>
						<g>
							<path fill="#F1B99E" d="M171.217,243.906c0,0,0.954-1.189,0.6-2.019c-0.302-0.704-0.219-1.837-0.192-2.186         c0.032-0.466-0.366-1.948,0.185-1.898c0.553,0.051,0.767,2.413,0.904,2.901c0.137,0.487,1.303-1.381,1.77-1.537         c0.468-0.158,3.292,2.142,2.352,3.321c-0.94,1.181-2.686,1.763-2.811,2.007c-0.126,0.242-0.652,0.887-0.652,0.887         L171.217,243.906z"/>
						</g>
					</g>
				</g>
				<g>
					<g>
						<path fill="#F1B99E" d="M146.227,231.01c-0.113-0.082-0.243-0.154-0.355-0.203l-0.057,0.68l0.869,1.141l0.368,3.979        c0,0-2.511-2.488-3.223-2.949c-0.526-0.332-0.578-1.758-1.226-2.113c-0.761-0.421-1.529-0.793-2.136-0.955        c0,0-0.048,0.025-0.138,0.082c-0.073-0.858-0.242-2.396-0.631-4.611c0,0,0.13-0.355,0.324-0.841        c0.218,0.518,0.452,0.93,0.695,1.181c0.186,0.194,0.438,0.388,0.735,0.582c0,0,0.769,2.007,4.74,3.341        C146.202,230.563,146.211,230.799,146.227,231.01z"/>
						<path fill="#F1B99E" d="M144.423,232.627c-1.092,0-2.435-0.219-3.526-0.817c-0.178-0.089-0.355-0.193-0.518-0.315        c0,0-0.008-0.275-0.049-0.824c0.09-0.057,0.138-0.082,0.138-0.082c0.606,0.162,1.375,0.534,2.136,0.955        C143.251,231.898,143.896,232.295,144.423,232.627z"/>
						<path fill="#F1B99E" d="M146.202,229.027c-0.008,0.291-0.017,0.623-0.008,0.954v0.34c-3.972-1.334-4.74-3.341-4.74-3.341        c-0.298-0.194-0.55-0.388-0.735-0.582c-0.243-0.251-0.478-0.663-0.695-1.181c-0.194,0.485-0.324,0.841-0.324,0.841        s0,0-0.008-0.017c-0.057-0.323-0.122-0.662-0.187-1.019c-0.031-0.178,0.106-0.227,0.373-0.187        c0.08,0.017,0.177,0.041,0.282,0.064c1.69,0.519,6.074,3.18,6.074,3.18S146.219,228.485,146.202,229.027z"/>
						<path fill="#F1B99E" d="M146.47,232.012c0.089,0.194-0.219,0.381-0.753,0.494l0.098-1.02l0.057-0.68        c0.112,0.049,0.242,0.121,0.355,0.203c0.008,0.056,0.008,0.112,0.016,0.16c0.009,0.114,0.042,0.26,0.09,0.396        C146.38,231.754,146.445,231.939,146.47,232.012z"/>
					</g>
					<g>
						<path fill="#F1B99E" d="M150.166,225.363c-0.275,0.291-1.107,3.891-2.184,3.996c-0.324,0.032-0.979-0.098-1.78-0.332        c0,0-0.081-0.024-0.227-0.072c-1.141-0.34-2.515-0.874-3.623-1.457c-0.356-0.178-0.663-0.355-0.898-0.518        c-0.298-0.194-0.55-0.388-0.735-0.582c-0.243-0.251-0.478-0.663-0.695-1.181c-0.049-0.122-0.098-0.243-0.146-0.381        c-0.874-2.418-1.376-6.624-0.688-8.654c0.882-2.621,8.008-3.704,10.709,1.237c0,0,0.301,0.559,0.575,1.222        c0.331,0.825,0.614,1.804,0.194,2.055c-0.631,0.363,0.728,3.138,0.905,3.591C151.752,224.74,150.441,225.071,150.166,225.363z        "/>
					</g>
					<g>
						<path fill="#0B4870" d="M150.474,218.642c-0.008,0.008-0.008,0.016-0.008,0.016c-3.713,2.362-3.899,0.113-5.46,0.494        c-1.562,0.372-0.567,3.025-0.567,3.025s-0.581-0.05-1.277,0.008c-0.615,0.056-1.318,0.186-1.771,0.518        c-0.032,0.024-0.064,0.057-0.104,0.097c-0.348,0.364-0.793,1.318-1.125,2.103c-0.049,0.114-0.089,0.219-0.137,0.316        c-0.194,0.485-0.324,0.841-0.324,0.841s0,0-0.008-0.017c-0.064-0.112-0.372-0.824-1.643-5.225        c-1.682-5.864,1.65-6.091,2.241-6.244c0.59-0.154,5.693-2.687,9.124-1.521C152.026,213.934,150.57,218.342,150.474,218.642z"/>
					</g>
					<g>
						<path fill="#EEA886" d="M142.779,220.656c-0.137-0.364-0.582-1.928-1.924-1.009c-1.341,0.917,0.836,3.864,1.069,3.901        C142.159,223.587,143.938,223.716,142.779,220.656z"/>
					</g>
					<path fill="#A77860" d="M146.194,229.981v0.34c-3.972-1.334-4.74-3.341-4.74-3.341c0.235,0.162,0.542,0.34,0.898,0.518       c1.245,0.615,3.009,1.238,3.623,1.457c0.146,0.048,0.227,0.072,0.227,0.072C146.194,229.318,146.186,229.65,146.194,229.981z"/>
				</g>
				<path fill="#FCD2B1" d="M174.119,244.881c0,0-0.124-0.343-0.385-0.797c-0.398-0.702-1.113-1.679-2.171-2.139      c0,0-5.073,3.799-7.195,4.994c-0.187,0.099-0.392,0.211-0.598,0.315c0,0-0.05,0.031-0.142,0.083      c-1.705,0.856-3.994,1.79-5.884,3.09c-1.479-4.776-3.757-14.621-7.046-17.227l-0.007-0.006c-0.827-0.653-1.71-0.852-2.667-0.397      c0,0-4.92,3.345-1.648,11.672c1.144,2.904,2.68,5.31,4.197,7.201c1.705,2.127,3.381,3.614,4.455,4.465h-0.002      c0,0,1.549,1.554,3.026,1.438c1.477-0.117,2.942-1.388,2.942-1.388h-0.001C165.082,253.438,174.119,244.881,174.119,244.881"/>
				<path fill="#FFE3CA" d="M154.258,249.054c-0.412,8.792-1.763,8.388-1.609,16.234c0,0.12,0.04,0.493,0.081,0.8      c0.016,0.194,0.04,0.364,0.057,0.438c0.04,0.219,0.081,0.752-0.453,0.857c-0.016,0.146-0.032,0.283-0.057,0.404      c-0.462,2.482-2.953,2.523-5.815,1.643c-4.498-1.375-9.959-3.621-9.959-3.621s-3.168,0.483-2.278-3.431      c0.445-1.982,2.481-5.899,1.737-7.784c-1.253-3.203-3.113-8.363-3.882-12.658c-0.308-1.689-0.494-3.065-0.51-4.206      c-0.032-3.405,1.504-4.626,6.212-5.719c0.614-0.146,1.229-0.282,1.828-0.412c0.438-0.098,0.865-0.178,1.285-0.259      c0.584-0.113,0.053,0.381,0.611,0.316c0.646,0.356,1.523,1.282,2.049,1.613c0.712,0.461,2.276,1.092,2.276,1.092l0.371-2.006      l0.032-1.363c0.114,0.008,0.065,0.032,0.179,0.048c0.057,0.008,0.135,0.09,0.191,0.106c0.234,0.04,0.181,0.031,0.398,0.08      c1.957,0.429,3.179,1.141,4.69,2.539C154.096,235.982,154.679,240.027,154.258,249.054z"/>
				<g opacity="0.08">
					<g>
						<defs>
							<rect id="SVGID_55_" x="131.313" y="236.828" width="20.384" height="32.372"/>
						</defs>
						<clipPath id="SVGID_1_">
							<use xmlns:xlink="http://www.w3.org/1999/xlink" xlink:href="#SVGID_55_" overflow="visible"/>
						</clipPath>
					</g>
				</g>
				<path fill="#0E538C" d="M145.504,236.141c0,0,1.074,16.771,0.159,22.728c0,0,1.194,3.211,1.968,3.483      c0.774,0.273,1.339-1.624,2.097-3.682c0.759-2.059-2.778-22.675-2.778-22.675L145.504,236.141z"/>
				<path fill="#0E538C" d="M144.611,235.084l0.893,1.057l1.444-0.146c0,0,0.081-0.505,0.104-1.833c0,0-0.85-0.537-1.389-0.504      L144.611,235.084z"/>
				<path fill="#FCD2B1" d="M145.661,233.654l-0.824,1.699l-0.13,0.267c0,0-3.243-2.298-3.922-2.71      c-0.405-0.251-0.834-0.469-1.149-0.623c-0.259-0.129-0.438-0.202-0.438-0.202c0.446-0.679,0.718-1.093,0.944-1.237      c0.089-0.057,0.137-0.082,0.137-0.082c0.607,0.162,1.589,0.575,2.349,0.996c0.647,0.355,1.294,0.752,1.82,1.084      C145.16,233.307,145.661,233.654,145.661,233.654z"/>
				<path fill="#FCD2B1" d="M147.481,234.875c-0.033-0.072-0.065-0.138-0.114-0.21v-0.008c-0.428-0.696-1.457-0.981-1.457-0.981      l0.164-0.969l0.096-1.019l0.057-0.679c0.114,0.048,0.244,0.12,0.356,0.201c0.388,0.243,0.735,0.574,0.735,0.574      c0.017,0.041,0.033,0.081,0.041,0.113C148.039,233.808,147.481,234.875,147.481,234.875z"/>
			</g>
			<g>
				<path fill="#522cad" d="M146.131,199.298c1.767-1.079,3.417-2.331,4.928-3.745l-0.124-0.335c0.022-0.021,0.046-0.04,0.068-0.061      l-0.168-0.454c0.049-0.046,0.102-0.089,0.151-0.136l-1.639-4.424c0.734-0.835,1.422-1.714,2.043-2.647l5.49,0.566      c0.98-1.789,1.791-3.693,2.399-5.697l-0.148-0.123c0.028-0.092,0.062-0.181,0.09-0.274l-0.166-0.138      c0.05-0.15,0.104-0.299,0.15-0.45l-4.032-3.346c0.062-0.329,0.117-0.663,0.162-1.001c0.084-0.606,0.137-1.214,0.176-1.815      l5.055-2.261c-0.016-0.686-0.064-1.364-0.125-2.04c-0.101-1.729-0.344-3.426-0.729-5.078l-5.439-0.929      c-0.306-0.933-0.677-1.833-1.085-2.716l3.003-4.15c-0.052-0.085-0.11-0.167-0.164-0.251l0.106-0.146      c-0.067-0.109-0.141-0.215-0.209-0.323l0.192-0.267c-1.077-1.765-2.331-3.416-3.745-4.927l-5.168,1.913      c-0.853-0.771-1.768-1.477-2.725-2.128l0.477-4.62c-0.03-0.017-0.062-0.031-0.094-0.049l0.037-0.348      c-0.024-0.014-0.051-0.024-0.073-0.038l0.057-0.552c-1.79-0.981-3.692-1.792-5.696-2.396l-3.535,4.258      c-0.592-0.125-1.188-0.235-1.797-0.318c-0.609-0.083-1.215-0.137-1.817-0.176l-2.261-5.052c-2.093,0.044-4.146,0.315-6.132,0.78      l-0.929,5.439c-1.165,0.38-2.296,0.845-3.386,1.387l-4.464-3.23c-1.768,1.075-3.419,2.329-4.93,3.741l0.169,0.453      c-0.05,0.048-0.103,0.089-0.151,0.137l0.123,0.337c-0.021,0.02-0.045,0.039-0.067,0.059l1.639,4.425      c-0.734,0.836-1.422,1.716-2.042,2.648l-5.49-0.565c-0.982,1.789-1.792,3.691-2.398,5.698l0.166,0.138      c-0.049,0.15-0.104,0.297-0.15,0.45l0.148,0.123c-0.029,0.092-0.063,0.182-0.091,0.274l4.03,3.342      c-0.061,0.334-0.117,0.666-0.163,1.004c-0.083,0.608-0.137,1.213-0.173,1.815l-5.055,2.261c0.006,0.197,0.021,0.39,0.029,0.584      l-0.012,0.005c0.024,1.153,0.124,2.291,0.28,3.414c0.133,1.054,0.317,2.093,0.557,3.116l5.441,0.926      c0.303,0.932,0.674,1.834,1.083,2.717l-3.002,4.15c0.066,0.109,0.141,0.214,0.207,0.323l-0.19,0.265      c0.052,0.085,0.108,0.167,0.162,0.251l-0.106,0.146c1.076,1.768,2.331,3.419,3.743,4.932l5.169-1.917      c0.855,0.771,1.767,1.479,2.726,2.128l-0.477,4.621c0.024,0.012,0.05,0.025,0.074,0.038l-0.057,0.55      c0.03,0.018,0.062,0.031,0.093,0.048l-0.037,0.35c1.789,0.983,3.692,1.792,5.697,2.399l3.535-4.261      c0.593,0.125,1.188,0.237,1.797,0.32c0.607,0.083,1.212,0.136,1.816,0.172l2.262,5.056c2.095-0.047,4.145-0.315,6.132-0.78      l0.927-5.441c1.166-0.38,2.297-0.845,3.387-1.387L146.131,199.298z M125.53,173.523c0.005-0.186,0.019-0.371,0.044-0.56      c0.373-2.736,2.904-4.657,5.638-4.281c2.185,0.299,3.847,1.975,4.237,4.029c0.005,0.041,0.011,0.082,0.015,0.123      c-0.006,0.167-0.02,0.333-0.043,0.5c-0.373,2.732-2.903,4.655-5.64,4.282C127.575,177.314,125.899,175.608,125.53,173.523z"/>
				<path fill="#D3D3D3" d="M183.476,140.673c1.368-1.215,2.511-2.685,3.365-4.345l5.832-1.17c0.289-0.967,0.527-1.955,0.671-2.986      c0.139-1.028,0.173-2.045,0.157-3.053l-0.062-0.032c-0.001-0.122,0.007-0.245,0.004-0.365l-0.023-0.013      c0.001-0.192,0.011-0.385,0.008-0.577l-5.303-2.691c-0.345-1.659-0.97-3.224-1.82-4.649l1.719-5.092      c-0.046-0.048-0.097-0.092-0.144-0.141l0.087-0.257c-0.052-0.056-0.109-0.104-0.161-0.159l0.145-0.43      c-1.393-1.473-3.015-2.731-4.814-3.732l-4.983,3.245c-0.862-0.285-1.759-0.505-2.689-0.634      c-0.933-0.127-1.857-0.155-2.763-0.111l-3.929-4.466c-2.002,0.482-3.902,1.259-5.641,2.304l0.031,0.581      c-0.005,0.003-0.011,0.004-0.015,0.008l0.289,5.366c-1.363,1.212-2.5,2.676-3.354,4.332l-5.831,1.17      c-0.287,0.967-0.526,1.957-0.668,2.984c-0.14,1.029-0.175,2.047-0.157,3.055l0.024,0.014c0,0.19-0.011,0.385-0.008,0.575      l0.062,0.031c0,0.122-0.006,0.245-0.004,0.365l5.301,2.694c0.343,1.659,0.97,3.222,1.82,4.648l-1.72,5.092      c0.052,0.055,0.109,0.104,0.163,0.158l-0.146,0.431c0.046,0.048,0.097,0.093,0.144,0.141l-0.088,0.257      c1.394,1.473,3.016,2.731,4.816,3.732l4.982-3.245c0.861,0.284,1.759,0.507,2.689,0.636c0.934,0.125,1.856,0.151,2.764,0.111      l3.928,4.463c2.003-0.481,3.904-1.26,5.641-2.303L183.476,140.673z M168.495,129.336c0.005-0.184,0.017-0.367,0.042-0.555      c0.376-2.735,2.905-4.655,5.641-4.283c2.187,0.299,3.848,1.977,4.238,4.033c0.004,0.041,0.01,0.08,0.014,0.119      c-0.006,0.167-0.021,0.334-0.043,0.501c-0.374,2.735-2.904,4.658-5.64,4.283C170.538,133.133,168.862,131.424,168.495,129.336z"/>
				<path fill="#2A94F4" d="M269.564,259.085l10.502,7.105c1.9-1.833,3.688-3.739,5.356-5.722l-0.227-0.291      c0.053-0.061,0.106-0.122,0.157-0.184l-0.296-0.38c0.091-0.107,0.187-0.213,0.276-0.32l-7.303-9.358      c0.742-0.984,1.464-1.976,2.139-2.996l11.966,4.137c1.354-2.246,2.589-4.554,3.687-6.912L295.605,244      c0.049-0.104,0.102-0.206,0.15-0.309l-0.263-0.198c0.08-0.169,0.163-0.335,0.241-0.503l-9.692-7.312      c0.423-1.067,0.825-2.141,1.188-3.228l12.617,0.899c0.723-2.518,1.305-5.069,1.759-7.644l-0.146-0.06      c0.026-0.137,0.055-0.275,0.08-0.413l-0.143-0.058c0.04-0.215,0.083-0.43,0.122-0.645l-11.509-4.655      c0.126-1.079,0.229-2.161,0.297-3.245l12.415-2.392c0.051-2.616-0.026-5.231-0.25-7.842l-0.019-0.003      c-0.027-0.391-0.035-0.782-0.068-1.171l-12.559-1.551c-0.138-1.063-0.311-2.123-0.503-3.181l11.28-5.482      c-0.036-0.15-0.079-0.301-0.116-0.449l0.05-0.024c-0.053-0.21-0.111-0.421-0.165-0.631l0.145-0.07      c-0.62-2.523-1.39-5.026-2.285-7.496l-12.54,1.759c-0.429-1.037-0.902-2.062-1.394-3.081l9.244-8.007      c-0.067-0.119-0.137-0.237-0.205-0.356l0.137-0.117c-0.089-0.161-0.184-0.32-0.274-0.481l0.254-0.221      c-1.257-2.27-2.64-4.486-4.153-6.646l-11.673,4.95c-0.44-0.576-0.875-1.153-1.339-1.716c-0.302-0.366-0.613-0.724-0.926-1.079      l6.694-9.892c-0.076-0.078-0.153-0.154-0.23-0.232l0.163-0.241c-0.097-0.101-0.197-0.196-0.293-0.296l0.273-0.404      c-1.83-1.904-3.739-3.688-5.721-5.356l-9.994,7.796c-1.027-0.792-2.074-1.55-3.141-2.271l3.832-11.066      c-0.064-0.037-0.129-0.073-0.193-0.111l0.125-0.361c-0.072-0.043-0.146-0.085-0.219-0.128l0.199-0.573      c-2.249-1.355-4.555-2.59-6.915-3.688l-7.631,10.117c-1.29-0.536-2.597-1.019-3.915-1.465l0.82-11.504      c-0.033-0.01-0.065-0.017-0.1-0.027l0.033-0.445c-0.023-0.006-0.047-0.014-0.07-0.02l0.05-0.683      c-2.519-0.723-5.071-1.303-7.647-1.757l-4.74,11.722c-1.438-0.191-2.883-0.33-4.332-0.424l-2.393-12.413      c-2.615-0.051-5.232,0.027-7.842,0.251l-1.55,12.557c-1.438,0.187-2.873,0.418-4.3,0.708l-5.537-11.397      c-2.525,0.622-5.028,1.39-7.494,2.286l0.093,0.675c-0.024,0.009-0.049,0.017-0.075,0.026l1.664,11.87      c-1.314,0.544-2.606,1.146-3.89,1.784l-8.3-9.578c-2.271,1.254-4.486,2.64-6.648,4.155l0.234,0.554      c-0.071,0.05-0.144,0.098-0.215,0.146l0.17,0.404c-0.033,0.023-0.068,0.045-0.103,0.07l4.552,10.735      c-0.471,0.358-0.94,0.72-1.403,1.101c-0.563,0.465-1.104,0.945-1.644,1.422l-10.501-7.104c-1.902,1.831-3.689,3.738-5.357,5.724      l0.296,0.379c-0.091,0.108-0.187,0.213-0.277,0.32l0.228,0.29c-0.053,0.063-0.106,0.122-0.159,0.185l7.307,9.358      c-0.744,0.983-1.469,1.978-2.146,2.998l-11.962-4.141c-1.354,2.249-2.591,4.555-3.688,6.912l0.263,0.2      c-0.08,0.166-0.164,0.334-0.242,0.502l0.217,0.163c-0.05,0.104-0.102,0.206-0.15,0.311l9.696,7.31      c-0.424,1.068-0.825,2.144-1.188,3.229l-12.62-0.9c-0.724,2.521-1.305,5.071-1.759,7.647l0.143,0.057      c-0.04,0.214-0.084,0.428-0.121,0.645l0.146,0.059c-0.025,0.139-0.054,0.275-0.079,0.414l11.509,4.657      c-0.123,1.077-0.229,2.157-0.298,3.241l-12.412,2.393c-0.027,1.393-0.015,2.784,0.033,4.178      c0.037,1.455,0.112,2.911,0.236,4.365l0.034,0.004c0.014,0.157,0.021,0.313,0.034,0.469l12.557,1.549      c0.137,1.064,0.311,2.125,0.503,3.182l-11.28,5.481c0.052,0.211,0.11,0.421,0.164,0.632l-0.146,0.069      c0.038,0.15,0.079,0.299,0.117,0.448l-0.05,0.025c0.622,2.527,1.393,5.026,2.286,7.495l12.539-1.759      c0.43,1.037,0.901,2.063,1.394,3.082l-9.238,8.011c0.089,0.161,0.183,0.32,0.273,0.48l-0.254,0.22      c0.064,0.12,0.135,0.238,0.202,0.357l-0.136,0.117c1.254,2.266,2.639,4.482,4.152,6.646l11.675-4.949      c0.44,0.573,0.876,1.152,1.337,1.715c0.303,0.367,0.615,0.725,0.928,1.078l-6.695,9.895c0.096,0.099,0.196,0.196,0.293,0.296      l-0.273,0.405c0.075,0.078,0.153,0.153,0.229,0.232l-0.162,0.24c1.828,1.898,3.736,3.684,5.723,5.355l9.989-7.803      c1.028,0.795,2.076,1.553,3.142,2.274l-3.831,11.066c0.072,0.043,0.146,0.083,0.219,0.127l-0.199,0.574      c0.064,0.039,0.129,0.074,0.192,0.112l-0.124,0.36c2.25,1.354,4.557,2.593,6.915,3.688l7.631-10.114      c1.29,0.533,2.597,1.018,3.914,1.461l-0.818,11.507c0.022,0.007,0.046,0.013,0.068,0.019l-0.049,0.684      c0.034,0.01,0.066,0.019,0.1,0.027l-0.031,0.444c2.519,0.721,5.069,1.302,7.645,1.755l4.74-11.721      c1.439,0.189,2.883,0.334,4.331,0.424l2.396,12.416c2.612,0.049,5.229-0.03,7.841-0.254l1.548-12.555      c1.44-0.188,2.872-0.42,4.302-0.711l5.536,11.4c2.524-0.624,5.027-1.389,7.494-2.287l-0.161-1.148      c0.024-0.009,0.049-0.017,0.073-0.026l-1.597-11.393c1.316-0.544,2.611-1.149,3.895-1.787l8.301,9.577      c2.267-1.256,4.482-2.641,6.646-4.152l-0.172-0.403c0.035-0.022,0.069-0.046,0.104-0.069l-0.234-0.556      c0.071-0.05,0.143-0.096,0.214-0.146l-4.551-10.742c0.47-0.358,0.942-0.717,1.405-1.096      C268.485,260.045,269.026,259.564,269.564,259.085z M255.424,244.252c-17.974,14.787-44.633,12.193-59.418-5.78      c-3.674-4.466-6.272-9.469-7.832-14.692c-4.146-15.432,0.721-32.586,13.84-43.379c17.88-14.711,44.396-12.13,59.105,5.749      c6.406,7.789,9.53,17.215,9.541,26.591c-0.024,2.454-0.263,4.901-0.71,7.314C268.093,229.232,263.202,237.854,255.424,244.252z"/>
				<path fill="#522cad" d="M364.016,221.254l8.877,6.553c1.385-1.266,2.662-2.612,3.85-4.021l-0.182-0.223      c0.051-0.06,0.105-0.117,0.154-0.178l-0.232-0.287c0.087-0.101,0.177-0.199,0.262-0.301l-6.555-8.119      c0.697-0.995,1.345-2.018,1.922-3.074l10.699,2.657c0.783-1.69,1.449-3.425,2.006-5.195l-0.135-0.074      c0.035-0.108,0.074-0.217,0.108-0.326l-0.139-0.077c0.054-0.17,0.115-0.34,0.169-0.512l-9.484-5.168      c0.236-1.097,0.432-2.201,0.557-3.317l10.887-1.638c0.044-0.977,0.051-1.954,0.029-2.932c0-1.208-0.031-2.419-0.133-3.629      l-10.961-1.166c-0.169-1.117-0.41-2.223-0.696-3.322l9.214-5.55c-0.041-0.113-0.087-0.226-0.129-0.339l0.104-0.062      c-0.059-0.155-0.118-0.31-0.179-0.464l0.207-0.124c-0.629-1.729-1.369-3.433-2.234-5.097l-10.588,3.119      c-0.368-0.606-0.723-1.219-1.137-1.809c-0.296-0.426-0.613-0.823-0.934-1.218l6.174-8.362c-0.059-0.064-0.121-0.125-0.181-0.19      l0.155-0.21c-0.074-0.082-0.152-0.159-0.228-0.24l0.257-0.348c-1.266-1.383-2.611-2.663-4.021-3.845l-8.571,6.92      c-1.092-0.803-2.23-1.517-3.4-2.167l2.442-9.833c-0.038-0.017-0.076-0.031-0.113-0.05l0.087-0.352      c-0.035-0.015-0.07-0.029-0.105-0.046l0.135-0.542c-1.691-0.784-3.426-1.45-5.196-2.008l-5.269,9.668      c-1.384-0.338-2.789-0.587-4.207-0.742l-1.637-10.887c-1.855-0.083-3.713-0.052-5.57,0.104l-1.166,10.963      c-1.405,0.213-2.799,0.513-4.178,0.914l-5.683-9.438c-1.731,0.632-3.433,1.375-5.097,2.238l0.146,0.501      c-0.057,0.03-0.117,0.058-0.177,0.087l0.106,0.362c-0.025,0.014-0.055,0.024-0.08,0.038l2.873,9.75      c-0.523,0.316-1.052,0.629-1.56,0.984c-0.591,0.414-1.134,0.867-1.688,1.312l-8.878-6.558c-1.384,1.27-2.663,2.613-3.849,4.023      l0.232,0.286c-0.086,0.102-0.174,0.2-0.261,0.301l0.181,0.223c-0.053,0.061-0.104,0.118-0.155,0.178l6.556,8.122      c-0.697,0.993-1.346,2.015-1.922,3.073l-10.699-2.658c-0.783,1.691-1.449,3.425-2.005,5.196l0.139,0.077      c-0.054,0.171-0.114,0.34-0.169,0.512l0.135,0.073c-0.035,0.109-0.074,0.218-0.107,0.327l9.482,5.167      c-0.236,1.097-0.432,2.202-0.555,3.318l-10.889,1.638c-0.008,0.194,0,0.391-0.008,0.585l-0.021,0.005      c-0.08,1.853-0.051,3.711,0.107,5.569h0.005c0.011,0.133,0.01,0.267,0.022,0.4l10.959,1.167      c0.169,1.116,0.411,2.223,0.699,3.321l-9.218,5.55c0.057,0.155,0.118,0.31,0.178,0.465l-0.208,0.123      c0.043,0.113,0.088,0.227,0.131,0.339l-0.104,0.062c0.63,1.729,1.371,3.431,2.234,5.096l10.588-3.118      c0.369,0.606,0.724,1.219,1.139,1.81c0.295,0.424,0.611,0.821,0.932,1.216l-6.174,8.363c0.074,0.081,0.151,0.158,0.227,0.239      l-0.258,0.348c0.061,0.065,0.123,0.127,0.182,0.191l-0.155,0.209c1.269,1.384,2.614,2.662,4.023,3.845l8.57-6.92      c1.091,0.803,2.229,1.517,3.4,2.168l-2.442,9.832c0.035,0.016,0.07,0.03,0.104,0.047l-0.134,0.541      c0.037,0.018,0.075,0.032,0.113,0.051l-0.088,0.35c1.692,0.784,3.427,1.451,5.197,2.009l5.268-9.667      c1.387,0.338,2.789,0.586,4.207,0.742l1.639,10.888c1.855,0.083,3.712,0.052,5.568-0.108l1.168-10.96      c1.404-0.212,2.797-0.511,4.177-0.915l5.683,9.438c1.729-0.631,3.432-1.37,5.096-2.238l-0.105-0.36      c0.025-0.014,0.053-0.027,0.08-0.04l-0.146-0.5c0.058-0.029,0.117-0.059,0.176-0.089l-2.872-9.747      c0.525-0.316,1.052-0.629,1.562-0.985C362.918,222.15,363.463,221.695,364.016,221.254z M358.628,216.281      c-11.677,8.17-27.826,5.321-35.998-6.357c-3.046-4.354-4.558-9.325-4.655-14.275c0.146-7.991,3.973-15.809,11.008-20.733      c11.678-8.171,27.824-5.321,35.998,6.357c2.768,3.956,4.267,8.423,4.59,12.917c0.042,0.741,0.055,1.482,0.033,2.221      C369.206,204.098,365.408,211.534,358.628,216.281z"/>
				<path fill="#0E538C" d="M314.1,161.755c1.57-0.896,3.04-1.985,4.388-3.243l-0.163-0.304c0.035-0.032,0.072-0.062,0.105-0.094      l-0.22-0.409c0.068-0.061,0.138-0.118,0.204-0.18l-3.9-7.266c0.299-0.396,0.589-0.804,0.85-1.238      c0.342-0.564,0.627-1.143,0.886-1.73l8.964,0.052c0.48-1.78,0.755-3.588,0.814-5.396l-0.08-0.024      c0.007-0.124,0.02-0.248,0.023-0.373l-0.053-0.016c0.012-0.19,0.03-0.382,0.036-0.573l-8.586-2.588      c-0.118-1.013-0.341-2.008-0.659-2.976l6.178-6.105c-0.055-0.095-0.116-0.188-0.173-0.281l0.117-0.116      c-0.074-0.128-0.156-0.25-0.232-0.376l0.214-0.213c-0.897-1.569-1.986-3.038-3.245-4.389l-7.897,4.24      c-0.504-0.398-1.026-0.777-1.59-1.115c-0.538-0.325-1.094-0.599-1.653-0.848l0.048-8.016c-0.021-0.004-0.04-0.008-0.06-0.013      l0.002-0.384c-0.007-0.002-0.014-0.002-0.021-0.004l0.004-0.586c-1.781-0.481-3.589-0.756-5.397-0.816l-2.59,8.588      c-1.288,0.154-2.551,0.465-3.761,0.936l-6.306-6.38c-1.568,0.898-3.038,1.986-4.388,3.243l0.219,0.41      c-0.066,0.061-0.136,0.117-0.203,0.179l0.164,0.304c-0.033,0.033-0.072,0.062-0.106,0.094l3.901,7.269      c-0.301,0.396-0.59,0.801-0.853,1.236c-0.339,0.562-0.624,1.145-0.882,1.731l-8.965-0.053c-0.482,1.781-0.757,3.588-0.816,5.396      l0.054,0.016c-0.011,0.191-0.03,0.382-0.036,0.573l0.079,0.022c-0.005,0.126-0.02,0.25-0.022,0.374l8.588,2.591      c0.119,1.013,0.342,2.01,0.657,2.977l-6.176,6.104c0.073,0.129,0.155,0.252,0.23,0.377l-0.213,0.211      c0.054,0.096,0.116,0.188,0.174,0.283l-0.117,0.115c0.897,1.57,1.986,3.04,3.243,4.387l7.898-4.236      c0.502,0.395,1.027,0.775,1.59,1.115c0.54,0.325,1.092,0.597,1.653,0.848l-0.046,8.013c0.007,0.003,0.014,0.005,0.02,0.005      l-0.003,0.585c0.021,0.005,0.04,0.009,0.06,0.014l-0.002,0.383c1.777,0.481,3.589,0.757,5.395,0.815l2.591-8.587      c1.286-0.153,2.55-0.466,3.762-0.934L314.1,161.755z M292.076,141.383c-0.049-1.878,0.408-3.789,1.445-5.513      c2.903-4.817,9.182-6.379,14-3.478c2.658,1.6,4.315,4.229,4.789,7.07c0.025,0.201,0.047,0.401,0.061,0.604      c0.017,1.821-0.44,3.668-1.447,5.34c-2.902,4.817-9.178,6.379-13.998,3.475C294.136,147.201,292.448,144.388,292.076,141.383z"/>
				<path fill="#D3D3D3" d="M401.043,180.863l-0.087-0.561c0.022-0.01,0.047-0.019,0.069-0.027l-0.852-5.551      c0.373-0.237,0.738-0.489,1.089-0.778c0.374-0.307,0.712-0.637,1.034-0.979l6.177,2.228c0.767-1.111,1.398-2.292,1.882-3.525      l-0.174-0.126c0.039-0.092,0.08-0.181,0.115-0.271l-0.203-0.149c0.062-0.147,0.129-0.291,0.188-0.439l-5.087-3.734      c0.098-0.66,0.159-1.324,0.142-1.992l5.943-2.794c-0.023-0.129-0.055-0.257-0.082-0.385l0.025-0.012      c-0.033-0.182-0.076-0.362-0.115-0.544l0.099-0.045c-0.235-1.304-0.628-2.586-1.168-3.823l-6.489,0.995      c-0.25-0.397-0.519-0.786-0.825-1.16c-0.21-0.255-0.435-0.491-0.663-0.72l1.985-5.504c-0.054-0.036-0.108-0.068-0.163-0.105      l0.105-0.291c-0.061-0.041-0.124-0.08-0.186-0.12l0.17-0.47c-1.111-0.767-2.291-1.399-3.526-1.881l-3.888,5.294      c-0.928-0.21-1.875-0.302-2.826-0.274l-2.793-5.945c-1.303,0.236-2.584,0.629-3.822,1.167l0.087,0.561      c-0.024,0.011-0.047,0.019-0.069,0.029l0.061,0.396c-0.001,0.001-0.003,0.001-0.004,0.001l0.851,5.55      c-0.373,0.238-0.739,0.491-1.09,0.779c-0.373,0.307-0.711,0.638-1.034,0.979l-6.175-2.228c-0.767,1.111-1.399,2.292-1.882,3.526      l0.204,0.148c-0.062,0.147-0.13,0.292-0.188,0.439l0.173,0.126c-0.039,0.092-0.08,0.181-0.117,0.271l5.088,3.735      c-0.098,0.659-0.159,1.323-0.141,1.99l-5.945,2.796c0.033,0.181,0.076,0.36,0.115,0.543l-0.099,0.045      c0.023,0.129,0.056,0.258,0.081,0.386l-0.023,0.013c0.236,1.301,0.629,2.582,1.167,3.822l6.489-0.996      c0.25,0.397,0.519,0.788,0.826,1.16c0.209,0.256,0.435,0.491,0.662,0.721l-1.984,5.503c0.061,0.042,0.123,0.078,0.186,0.12      l-0.17,0.469c0.054,0.036,0.109,0.069,0.163,0.105l-0.105,0.291c1.112,0.767,2.294,1.399,3.526,1.882l3.889-5.295      c0.926,0.211,1.874,0.303,2.825,0.275l2.793,5.946c1.304-0.238,2.584-0.631,3.822-1.17l-0.062-0.396      C401.039,180.864,401.041,180.863,401.043,180.863z M392.562,163.371c1.062-0.873,2.633-0.719,3.504,0.34      c0.226,0.273,0.379,0.58,0.471,0.898c-0.076,0.613-0.372,1.199-0.884,1.621c-1.062,0.872-2.632,0.719-3.505-0.341      c-0.225-0.273-0.378-0.58-0.469-0.897C391.754,164.379,392.049,163.793,392.562,163.371z"/>
			</g>
			<g>
				<g>
					<path fill="#D3D3D3" d="M204.348,169.217c0,0,0.612,3.73,0.267,4.669c-0.346,0.937-3.823,5.254-3.031,7.333       c0.859,2.256,6.212-2.07,7.741-2.76c1.529-0.688,1.182-1.935,1.346-3.463c0.163-1.53,0.909-1.571,0.633-2.646       c-0.275-1.075-2.82-4.738-2.82-4.738L204.348,169.217z"/>
				</g>
				<g>
					<path fill="#D3D3D3" d="M222.39,170.226c0,0,1.339,3.192,2.459,4.871c1.119,1.679,6.935,3.259,7.062,5.552       c0.127,2.291-6.885,0.869-9.072,0.123c-2.187-0.746-2.518-2.984-3.84-3.543c-1.324-0.561-2.011-1.014-1.909-2.106       c0.103-1.092,0.741-4.966,0.741-4.966s0.992-0.054,1.477,0C219.789,170.208,221.245,170.543,222.39,170.226z"/>
				</g>
				<g>
					<path fill="#522cad" d="M207.486,110.23c0,0,0.84,4.985,1.515,8.279l0,0c0.274,1.334,0.521,2.393,0.675,2.726       c0.193,0.419,1.768,2.109,3.693,4.092c3.379,3.479,7.846,7.862,7.846,7.862l1.745-3.315c0,0-3.966-4.649-6.654-7.752       c-1.245-1.436-2.216-2.538-2.394-2.697c-0.562-0.505-1.215-5.46-2.132-9.542s-2.755-6.339-2.755-6.339L207.486,110.23z"/>
				</g>
				<g>
					<path fill="#F1B99E" d="M213.369,125.327c3.379,3.479,7.846,7.862,7.846,7.862l1.745-3.315c0,0-3.966-4.649-6.654-7.752       C215.48,122.527,213.969,123.491,213.369,125.327z"/>
				</g>
				<g>
					<path fill="#522cad" d="M191.491,132.514c-0.124,0.443,22.978,0,22.978,0s-6.391-4.65-6.804-5.894       c-0.415-1.242,1.626-8.697,1.894-11.125c0.213-1.94,0.746-10.626-0.533-11.951c-1.337-1.388-6.154-2.841-6.154-2.841       l-7.021,0.261c0,0-1.158,0.242-1.987,0.628c-0.827,0.383-5.565,2.071-6.335,4.438c-0.77,2.366,4.727,9.976,4.727,9.976       s0.012,0.344,0.028,0.902l0,0c0.021,0.748,0.052,1.885,0.081,3.116c0.037,1.595,0.069,3.352,0.069,4.636       C192.433,127.678,191.615,132.069,191.491,132.514z"/>
				</g>
				<g>
					<path fill="#0B4870" d="M191.491,132.514c0,0-3.142,4.616-3.187,7.768c-0.045,3.149,5.576,13.704,6.428,15.212       c2.557,4.538,9.57,14.329,9.57,14.329s1.207-0.032,4.979-1.496c0,0-4.665-12.93-5.256-14.273       c-2.509-5.692-3.908-9.73-3.065-10.707c0.844-0.977,3.143-1.956,3.808-2.533c0.666-0.577,12.262,2.192,13.478,2.506       c3.146,0.816,1.713,6.291,1.016,8.746C218.098,156.169,217.08,171,217.08,171s2.24,0.955,5.994,0.146       c0,0,7.371-26.775,7.608-29.438c0.235-2.663,0.353-7.053-17.812-10.391L191.491,132.514z"/>
				</g>
				<g>
					<path fill="#F1B99E" d="M200.945,85.446c0,0,6.095-1.374,4.702,6.297c-1.392,7.671-2.858,8.273-6.536,6.686       c-3.678-1.587-3.347-6.501-3.532-8.911C195.395,87.108,199,85.531,200.945,85.446z"/>
				</g>
				<g>
					<path fill="#F1B99E" d="M202.557,102.673c0,0-2.699,2.86-6.965,0.26c0,0,0.954-6.202,0.453-9.222       c-0.503-3.022,5.566,4.681,5.566,4.681c-0.081,0.041-0.133,0.329-0.146,0.739c-0.01,0.348,0.008,0.783,0.064,1.23       C201.654,101.364,201.967,102.426,202.557,102.673z"/>
				</g>
				<g>
					<path fill="#0E538C" d="M195.877,93.452c0,0,0.156-2.416,1.039-2.492c0.883-0.074,1.018,0.898,1.018,0.898l0.893,0.169       c0,0-0.281-2.118,0.601-2.488c0.881-0.37,5.71,1.166,6.417,0.544c0.709-0.622,2.165-5.938,0.764-5.804       c-5.646,0.538-6.482-1.607-9.071,0.146c0,0-2.018-0.231-2.317,1.397C194.92,87.45,195.328,92.242,195.877,93.452z"/>
				</g>
				<g>
					<path fill="#A77860" d="M201.529,100.361c-4.402-1.358-4.732-4.009-4.738-4.05c1.449,2.489,4.674,2.819,4.674,2.819       C201.455,99.479,201.473,99.914,201.529,100.361z"/>
				</g>
				<g>
					<path fill="#522cad" d="M193.789,101.624c0,0,3.225,6.415,8.432,6.002c5.207-0.414,0.887-6.863,0.65-6.923       C202.61,100.637,197.531,99.373,193.789,101.624z"/>
				</g>
				<g>
					<path fill="#0B4870" d="M217.111,132.189c0,0-15.953,1.967-25.62,0.324l18.47-2.307       C209.961,130.207,210.069,130.676,217.111,132.189z"/>
				</g>
				<g>
					<path fill="#EEA886" d="M205.178,129.481l1.19,0.602c0,0-0.271,1.888-0.923,2.459l-1.332-0.341       C204.113,132.201,204.39,130.132,205.178,129.481z"/>
				</g>
				<g>
					<path fill="#522cad" d="M192.282,116.908L192.282,116.908c0.021,0.748,0.052,1.885,0.081,3.116       c2.166-5.31,0.914-9.545,0.893-9.617C193.49,111.848,192.299,116.838,192.282,116.908z"/>
				</g>
				<g>
					<path fill="#522cad" d="M209.001,118.51L209.001,118.51c0.274,1.334,0.521,2.393,0.675,2.726       c0.74-3.58,0.074-8.163,0.074-8.163C209.648,115.262,209.001,118.51,209.001,118.51z"/>
				</g>
				<g>
					<polygon fill="#FFFFFF" points="205.523,132.359 228.199,132.027 216.75,137.84      "/>
				</g>
				<g>
					<polygon fill="#D3D3D3" points="216.75,137.84 205.523,133.49 205.523,132.359 217.638,136.731      "/>
				</g>
				<g>
					<g>
						<path fill="#522cad" d="M186.719,125.615c0.237,0.274,3.373,1.535,6.916,2.9h0.001c4.84,1.866,10.3,3.628,10.3,3.628        l1.242-2.662c0,0-5.717-3.106-9.58-5.288c-1.826-1.028-3.236-1.851-3.437-2.041c-0.622-0.592-0.782-1.54-0.325-3.194        c0.457-1.655,1.509-9.261,1.628-10.148c0.118-0.888-0.296-3.255-2.517-3.372c-2.218-0.119-3.348,0.507-3.348,0.507        s-0.557,0.232-0.971,5.617S186.155,124.965,186.719,125.615z"/>
					</g>
					<g>
						<path fill="#F1B99E" d="M193.635,128.516L193.635,128.516c4.841,1.866,10.479,3.686,10.479,3.686l1.064-2.72        c0,0-5.717-3.106-9.58-5.288C195.598,124.193,194.191,124.879,193.635,128.516z"/>
					</g>
					<g>
						<g>
							<path fill="#F1B99E" d="M206.111,130.124c0,0,1.416-0.221,2.396-0.448c0.758-0.178,2.642,0.065,3.121,0.553         c0.479,0.486,2.006,3.873,2.293,4.08c0.29,0.207-0.147,0.687-0.653,0.445c0,0-0.467,1.482-1.614,0.928         c-1.148-0.556-1.928-1.767-2.53-1.98c-0.601-0.213-4.103-1.29-4.103-1.29S205.209,129.763,206.111,130.124z"/>
						</g>
					</g>
					<g>
						<g>
							<path fill="#F1B99E" d="M211.281,130.006c0,0,0.91,0.438,1.148,0.636c0.237,0.196,1.2,0.916,1.434,1.086         s-0.352,0.652-2.074-0.095C210.067,130.888,211.281,130.006,211.281,130.006z"/>
						</g>
					</g>
				</g>
				<g>
					<polygon fill="#D3D3D3" points="216.75,137.84 223.495,119.425 245.24,119.779 238.811,136.751      "/>
				</g>
				<g>
					
						<ellipse transform="matrix(-0.8946 -0.4469 0.4469 -0.8946 382.3581 346.9808)" fill="#0B4870" cx="232.102" cy="128.395" rx="1.843" ry="2.686"/>
				</g>
				<g>
					<path fill="#EEA886" d="M197.916,90.834c-0.08-0.677-1.418-0.923-1.525,0.092c-0.108,1.014,0.607,2.794,1.115,2.619       S198.027,91.768,197.916,90.834z"/>
				</g>
			</g>
			<path fill="#FCD2B1" d="M159.621,241.383c0,0-0.188-0.312-0.533-0.706c-0.527-0.61-1.419-1.429-2.546-1.674     c0,0-4.233,4.717-6.082,6.304c-0.163,0.133-0.343,0.283-0.524,0.426c0,0-0.043,0.04-0.123,0.108     c-1.505,1.173-3.567,2.536-5.168,4.179c-2.383-4.395-6.537-13.605-10.272-15.52l-0.008-0.004     c-0.938-0.479-1.843-0.502-2.693,0.131c0,0-4.173,4.24,0.661,11.77c1.689,2.625,3.666,4.684,5.523,6.242     c2.088,1.754,4.021,2.885,5.24,3.51h-0.001c0,0,1.822,1.222,3.249,0.82c1.425-0.403,2.614-1.936,2.614-1.936h-0.001     C152.429,251.541,159.621,241.383,159.621,241.383"/>
			<g>
				<g>
					<path fill="#F1B99E" d="M160.053,235.345c0,0,3.105-3.404,3.492-3.441c0.389-0.038,0.557,0.157,0.278,0.487       c-0.278,0.332-2.911,3.385-2.911,3.385s4.32-3.356,4.632-3.461c0.182-0.062,0.524,0.294,0.39,0.487       c-0.132,0.191-4.232,3.782-4.232,3.782s4.04-3.124,4.326-3.13c0.25-0.004,0.488,0.406,0.203,0.66       c-0.284,0.254-3.876,3.384-3.876,3.384s3.079-2.073,3.325-1.925c0.15,0.09,0.459,0.383-0.352,0.893       c-0.81,0.507-2.6,1.923-2.6,1.923L160.053,235.345z"/>
				</g>
				<g>
					<g>
						<path fill="#F1B99E" d="M157.068,239.864c0,0,0.954-1.189,0.6-2.019c-0.302-0.704-0.219-1.837-0.192-2.186        c0.032-0.466-0.366-1.948,0.185-1.898c0.553,0.051,0.767,2.413,0.904,2.901c0.137,0.487,1.303-1.381,1.77-1.537        c0.468-0.158,3.292,2.142,2.352,3.321c-0.94,1.181-2.686,1.763-2.811,2.007c-0.126,0.242-0.652,0.887-0.652,0.887        L157.068,239.864z"/>
					</g>
				</g>
			</g>
			<g>
				<g>
					<path fill="#EEBEA7" d="M358.686,234.41c0,0-4.027-2.238-4.405-2.149c-0.382,0.087-0.478,0.325-0.108,0.55       c0.369,0.227,3.836,2.282,3.836,2.282s-5.164-1.807-5.492-1.808c-0.191,0.001-0.404,0.446-0.215,0.587       c0.188,0.14,5.217,2.237,5.217,2.237s-4.824-1.674-5.098-1.59c-0.237,0.076-0.333,0.541,0.019,0.691       c0.35,0.149,4.751,1.974,4.751,1.974s-3.578-0.985-3.765-0.766c-0.114,0.133-0.313,0.509,0.617,0.733       c0.929,0.224,3.077,0.995,3.077,0.995L358.686,234.41z"/>
				</g>
				<g>
					<g>
						<path fill="#EEBEA7" d="M362.953,237.745c0,0-1.282-0.825-1.209-1.723c0.061-0.764-0.378-1.811-0.515-2.133        c-0.179-0.433-0.272-1.964-0.778-1.741c-0.508,0.224,0.041,2.531,0.065,3.037c0.024,0.507-1.675-0.894-2.167-0.893        c-0.494-0.001-2.438,3.077-1.172,3.896c1.268,0.82,3.107,0.816,3.303,1.009c0.196,0.188,0.9,0.632,0.9,0.632L362.953,237.745z        "/>
					</g>
				</g>
			</g>
			<g>
				<path fill="#0E538C" d="M364.537,333.116c0,0-2.997,4.036-2.587,4.675c0.411,0.64,3.563,0.73,5.484,0      c1.918-0.73,1.963-5.461,2.83-7.492c0.364-0.852-0.414-3.361-1.508-3.545c-1.092-0.182-2.281,0.354-2.281,0.354      S367.61,329.97,364.537,333.116z"/>
			</g>
			<g>
				<g>
					<path fill="#EEBEA7" d="M366.454,327.074c0,0-0.63,1.719-0.86,3.359c-0.19,1.361-2.136,4.25-2.044,4.616       c0.091,0.365,2.558,0.696,3.563-0.245c1.005-0.942,1.652-3.683,1.872-5.322c0.208-1.527,0.468-2.281,0.468-2.281       S367.415,326.07,366.454,327.074z"/>
				</g>
			</g>
			<g>
				<path fill="#0E538C" d="M390.63,333.183c0,0-2.891,3.97-2.479,4.608c0.413,0.64,3.563,0.73,5.481,0      c1.92-0.73,1.967-5.461,2.834-7.492c0.363-0.852-0.415-3.361-1.508-3.545c-1.093-0.182-2.375,0.392-2.375,0.392      S393.701,330.035,390.63,333.183z"/>
			</g>
			<g>
				<g>
					<path fill="#EEBEA7" d="M392.583,327.146c0,0-0.229,1.872-0.596,3.199c-0.365,1.324-2.328,4.339-2.238,4.705       c0.092,0.365,2.559,0.696,3.564-0.245c1.004-0.942,1.781-3.67,1.873-5.322c0.092-1.651-0.229-2.729-0.229-2.729       S393.542,326.141,392.583,327.146z"/>
				</g>
			</g>
			<g>
				<polygon fill="#0E538C" points="370.345,329.943 370.345,334.168 369.798,334.168 369.798,330.902     "/>
			</g>
			<g>
				<polygon fill="#0E538C" points="396.546,329.943 396.546,334.168 395.997,334.168 395.997,330.902     "/>
			</g>
			
				<ellipse transform="matrix(-0.8053 -0.5929 0.5929 -0.8053 578.5018 634.996)" fill="#0B4870" cx="393.53" cy="222.497" rx="3.155" ry="4.011"/>
			<g>
				<g>
					<path fill="#EEBEA7" d="M378.142,261.445c0,0-2.57,11.968-3.161,14.98c-0.591,3.012-2.245,17.604-2.423,20.086       c-0.178,2.479-2.686,11.83-2.566,12.717c0.118,0.885-3.716,18.686-3.716,18.686s1.308,1.056,2.69,0.096       c0.709-0.493,8.413-16.665,8.413-21.096c0-6.124,4.529-14.118,5.114-15.489c5.427-12.729,4.359-16.622,5.068-17.448       s0.77,0.512,1.184,2.343s1.299,17.663,1.83,19.673c0.531,2.008,0.119,8.801,0.414,12.229       c0.295,3.425,1.594,18.924,1.594,18.924s1.005,1.574,2.412,0.042c0.304-0.331,2.436-17.267,2.494-21.342       c0.059-4.076,0.121-9.698,0.234-11.461c1.096-16.893,3.785-19.305-0.451-31.261       C389.339,240.741,378.142,261.445,378.142,261.445z"/>
				</g>
			</g>
			<g>
				<path fill="#2A94F4" d="M395.417,258.103c0,0,7.329,10.255,4.173,32.072c0,0-17.38,2.365-26.694-2.734      c0,0,3.852-22.494,5.246-25.995C379.537,257.944,395.417,258.103,395.417,258.103z"/>
			</g>
			<g>
				<path fill="#0B4870" d="M385.581,228.957c0,0-3.168,1.32-4.104,1.508c-0.938,0.188-4.107,4.867-4.744,6.591      c-0.639,1.726,0,4.312,1.312,7.35c1.313,3.038,0.075,4.051,0.675,7.088c0.6,3.038-1.337,9.513-1.449,11.201      c-0.111,1.688,17.63,1.961,21.115-1.114c0,0-3.504-5.25-3.955-6c-0.448-0.75-0.074-4.838,0.338-5.887      c0.413-1.05,3.159-9.979,3.159-9.979s2.245-6.857,0.218-8.434c-1.764-1.369-6.566-1.855-7.429-2.156      C389.853,228.825,387.345,228.695,385.581,228.957z"/>
			</g>
			<g>
				<path fill="#EEBEA7" d="M384.294,225.842c0,0,0.073,0.676,0.16,1.612c0.039,0.414,0.081,0.882,0.119,1.359      c0.109,1.366,0.198,2.841,0.146,3.593c0,0,2.807,2.812,5.997-3.281c0,0-1.343-2.512-0.332-5.934      S384.294,225.842,384.294,225.842z"/>
			</g>
			<g>
				<g>
					<g>
						<path fill="#EEBEA7" d="M387.965,210.238c0,0-6.59-0.227-6.978,11.147c-0.385,11.373,11.743,2.803,13.092-3.735        C395.431,211.115,387.965,210.238,387.965,210.238z"/>
					</g>
				</g>
			</g>
			<g>
				<g>
					<g>
						<path fill="#0B4870" d="M382.541,215.042c0,0,1.929,3.932,6.735,6.032c0,0,1.113,2.892,0.953,3.815        c0,0,8.197-6.805,3.216-12.357C388.168,206.647,381.206,212.49,382.541,215.042z"/>
					</g>
				</g>
			</g>
			<g>
				<g>
					<g>
						<path fill="#EEBEA7" d="M389.337,221.028c0.299-0.729,1.356-2.265,2.296-1.399c0.94,0.864-1.452,3.904-2.112,3.433        C389.521,223.062,388.624,222.761,389.337,221.028z"/>
					</g>
				</g>
			</g>
			<path fill="#A77860" d="M384.454,227.454c0.039,0.414,0.081,0.882,0.119,1.359l0,0c3.639-1.793,4.193-4.384,4.211-4.464     C386.193,227.697,384.454,227.454,384.454,227.454z"/>
			<path fill="#EEBEA7" d="M391.18,229.24c0,0-3.523,5.739-6.319,5.67c-2.795-0.066-0.888-5.307-0.888-5.307     S386.118,227.889,391.18,229.24z"/>
			<g>
				<path fill="#0E538C" d="M375.264,245.882c-1.041,0.089-4.365-1.76-7.568-3.141c-2.783-1.198-5.769-2.054-7.093-2.54      c-0.138-0.048-0.204-0.21-0.217-0.435c-0.042-0.839,0.808-3.496,1.468-3.318c0.725,0.193,1.469,0.399,2.215,0.608      c1.558,0.438,3.129,0.891,4.589,1.306c0.175,0.05,0.347,0.097,0.515,0.146c1.488,0.422,2.839,0.794,3.919,1.057      c1.152,0.282,1.987,0.435,2.337,0.385c0.773-0.115,5.987-2.458,9.547-4.107c0.093-0.046,0.188-0.087,0.281-0.135      c1.656-0.767,2.895-1.36,3.051-1.461c0.493-0.312,6.739-4.132,8.705-3.589c3.479,0.962,1.125,7.587,1.125,7.587l0,0      c0.202,2.185-0.522,0.427-1.125,0.869c-0.638,0.468-1.898,0.639-4.344,1.686c-1.506,0.646-2.81,1.044-3.743,1.409      C386.499,243.16,377.207,245.718,375.264,245.882z"/>
			</g>
		</g>
	</g>
</g>
</svg>